<?xml version="1.0" standalone="no"?>
<!DOCTYPE svg PUBLIC "-//W3C//DTD SVG 1.1//EN" "http://www.w3.org/Graphics/SVG/1.1/DTD/svg11.dtd" >
<!--
2013-9-30: Created.
-->
<svg>
<metadata>
Created by iconfont
</metadata>
<defs>

<font id="iconfont" horiz-adv-x="1024" >
  <font-face
    font-family="iconfont"
    font-weight="500"
    font-stretch="normal"
    units-per-em="1024"
    ascent="896"
    descent="-128"
  />
    <missing-glyph />
    
    <glyph glyph-name="x" unicode="x" horiz-adv-x="1001"
d="M281 543q-27 -1 -53 -1h-83q-18 0 -36.5 -6t-32.5 -18.5t-23 -32t-9 -45.5v-76h912v41q0 16 -0.5 30t-0.5 18q0 13 -5 29t-17 29.5t-31.5 22.5t-49.5 9h-133v-97h-438v97zM955 310v-52q0 -23 0.5 -52t0.5 -58t-10.5 -47.5t-26 -30t-33 -16t-31.5 -4.5q-14 -1 -29.5 -0.5
t-29.5 0.5h-32l-45 128h-439l-44 -128h-29h-34q-20 0 -45 1q-25 0 -41 9.5t-25.5 23t-13.5 29.5t-4 30v167h911zM163 247q-12 0 -21 -8.5t-9 -21.5t9 -21.5t21 -8.5q13 0 22 8.5t9 21.5t-9 21.5t-22 8.5zM316 123q-8 -26 -14 -48q-5 -19 -10.5 -37t-7.5 -25t-3 -15t1 -14.5
t9.5 -10.5t21.5 -4h37h67h81h80h64h36q23 0 34 12t2 38q-5 13 -9.5 30.5t-9.5 34.5q-5 19 -11 39h-368zM336 498v228q0 11 2.5 23t10 21.5t20.5 15.5t34 6h188q31 0 51.5 -14.5t20.5 -52.5v-227h-327z" />
    

    
    <glyph glyph-name="renwu" unicode="&#59154;" d="M544.188605 896q23.13556 0 43.756385-13.076621t27.662083-36.212181 2.011788-43.756385-17.100196-33.697446q-12.070727-12.070727-14.082515-22.129666t-1.005894-23.13556q1.005894-9.053045 16.094303-21.123772t41.24165-21.123772q27.159136-9.053045 41.24165-20.620825t23.13556-33.697446q5.02947-11.064833 12.573674-30.176817t16.094303-41.24165 15.591356-45.265226 12.070727-41.24165q4.023576-17.100196 6.035363-34.70334t-0.502947-32.691552-11.56778-26.153242-25.147348-17.100196q-12.070727-4.023576-17.603143-1.005894t-7.544204 9.555992-2.514735 15.088409-1.508841 16.59725q-2.011788 16.094303-10.561886 33.194499t-19.614931 46.27112q-5.02947 14.082515-8.047151 17.603143t-4.526523 1.005894-2.011788-8.047151-0.502947-9.555992q0-7.041257 2.514735-26.656189t6.53831-49.791749-0.502947-45.768173-4.526523-26.656189 2.011788-29.170923l4.023576-36.212181q1.005894-9.053045 1.005894-26.656189t-0.502947-38.223969-1.005894-41.744597-0.502947-36.212181 1.005894-42.247544 2.011788-56.330059 2.011788-54.318271 1.005894-35.206287q1.005894-11.064833-1.508841-14.585462t-6.53831-4.526523-10.058939 1.005894q1.005894-2.011788 1.005894-5.02947 0-6.035363 1.005894-9.053045 2.011788-13.076621-7.544204-22.632613t-23.638507-6.53831q-11.064833 2.011788-16.59725 8.550098t-7.544204 14.585462q-3.017682 9.053045-2.011788 19.111984l-10.058939 2.011788q-5.02947 2.011788-8.047151 19.111984 0 4.023576-1.005894 16.59725t-1.508841 29.170923-1.508841 33.697446-2.011788 29.170923-3.017682 33.697446-4.023576 44.259332-4.023576 44.259332-2.011788 33.697446q-1.005894 9.053045-3.017682 22.129666t-4.023576 25.650295-5.02947 21.626719-5.02947 9.053045-5.02947-8.550098-6.035363-20.620825-5.02947-26.153242-2.011788-24.141454q0-12.070727-1.508841-32.188605t-4.023576-42.750491-4.526523-43.756385-3.017682-35.206287-2.011788-30.679764-2.011788-32.691552-2.011788-29.67387-1.005894-20.620825q0-8.047151-2.514735-11.064833t-5.532417-5.02947q-4.023576-2.011788-8.047151-1.005894l0-11.064833q0-5.02947-1.005894-9.555992t-3.017682-7.544204q-5.02947-6.035363-17.603143-12.070727t-25.650295 4.023576q-5.02947 5.02947-7.041257 11.56778t-2.011788 12.573674q0 7.041257 2.011788 15.088409l-5.02947 0q-8.047151 0-11.56778 3.520629t-4.526523 9.053045 0 12.070727 1.005894 12.573674q1.005894 6.035363 2.011788 27.662083t2.011788 47.277014 2.011788 50.797642 1.005894 39.229862l0 31.182711q0 17.100196-0.502947 35.206287t-0.502947 36.212181l0 32.188605 0 45.265226q0 16.094303 2.011788 27.159136 3.017682 11.064833 0 24.644401t-3.017682 30.679764q-1.005894 17.100196 4.023576 39.229862t6.035363 53.312377q0 15.088409-2.011788 18.609037t-5.02947 0.502947-6.53831-9.555992-5.532417-10.561886q-2.011788-5.02947-6.035363-15.591356t-8.047151-22.129666-6.53831-21.626719-2.514735-13.076621 0.502947-11.064833-1.005894-16.094303-6.53831-13.579568-15.088409-5.532417q-20.117878 1.005894-35.709234 17.603143t-13.579568 54.821218q1.005894 19.111984 10.561886 51.803536t21.626719 66.891945 24.141454 62.365422 18.10609 39.229862q13.076621 21.123772 31.685658 26.656189t32.691552 10.561886 29.67387 14.585462 17.603143 24.644401q1.005894 12.070727 0 21.123772t-9.053045 18.10609q-14.082515 13.076621-19.111984 32.691552t-1.005894 39.732809q6.035363 33.194499 27.159136 46.27112t42.247544 13.076621z"  horiz-adv-x="1024" />

    
    <glyph glyph-name="liebiao" unicode="&#58988;" d="M315.4064 611.5529c-21.936 0-39.7167-17.7789-39.7167-39.7131s17.7817-39.7171 39.7167-39.7171 39.7167 17.7819 39.7167 39.7171S337.3425 611.5529 315.4064 611.5529zM315.4064 293.8333c-21.936 0-39.7167-17.7819-39.7167-39.7151 0-21.9351 17.7817-39.7151 39.7167-39.7151s39.7167 17.7809 39.7167 39.7151C355.1231 276.0513 337.3425 293.8333 315.4064 293.8333zM315.4064 452.6946c-21.936 0-39.7167-17.7809-39.7167-39.7151s17.7817-39.7151 39.7167-39.7151 39.7167 17.7809 39.7167 39.7151S337.3425 452.6946 315.4064 452.6946zM712.5758 293.8333 474.274362 293.8333c-21.936 0-39.7167-17.7819-39.7167-39.7151 0-21.9351 17.7817-39.7151 39.7167-39.7151l238.30144 0c21.936 0 39.7167 17.7809 39.7167 39.7151C752.2925 276.0513 734.5109 293.8333 712.5758 293.8333zM712.5758 611.5529 474.274362 611.5529c-21.936 0-39.7167-17.7789-39.7167-39.7131s17.7817-39.7171 39.7167-39.7171l238.30144 0c21.936 0 39.7167 17.7819 39.7167 39.7171S734.5109 611.5529 712.5758 611.5529zM831.728 849.8463 196.256181 849.8463c-43.8691 0-79.4335-35.5629-79.4335-79.4301l0-714.874315c0-43.8673 35.5644-79.4301 79.4335-79.4301l635.47184 0c43.8691 0 79.4315 35.5629 79.4315 79.4301L911.159521 770.416146C911.1595 814.2834 875.5971 849.8463 831.728 849.8463zM831.728 95.2579c0-21.9351-17.7837-39.7151-39.7187-39.7151l-556.036361 0c-21.936 0-39.7167 17.7809-39.7167 39.7151L196.256239 730.701073c0 21.9331 17.7817 39.7151 39.7167 39.7151l556.036361 0c21.936 0 39.7187-17.7829 39.7187-39.7151L831.728 95.257903zM712.5758 452.6946 474.274362 452.6946c-21.936 0-39.7167-17.7809-39.7167-39.7151s17.7817-39.7151 39.7167-39.7151l238.30144 0c21.936 0 39.7167 17.7809 39.7167 39.7151S734.5109 452.6946 712.5758 452.6946z"  horiz-adv-x="1000" />

    
    <glyph glyph-name="jiahao" unicode="&#58991;" d="M745.9988 442.3016 545.138747 442.3016 545.138747 643.154429c0 16.5568-13.4234 29.9797-29.9809 29.9797-16.5585 0-29.9809-13.4229-29.9809-29.9797l0-200.852822L284.314891 442.301608c-16.5575 0-29.9809-13.4229-29.9809-29.9797s13.4234-29.9797 29.9809-29.9797l200.861052 0 0-200.851822c0-16.5568 13.4234-29.9797 29.9809-29.9797 16.5575 0 29.9809 13.4229 29.9809 29.9797L545.137743 382.34226l200.860052 0c16.5575 0 29.9809 13.4229 29.9809 29.9797S762.5563 442.3016 745.9988 442.3016z"  horiz-adv-x="1000" />

    
    <glyph glyph-name="jianhao" unicode="&#58992;" d="M284.3149 382.3423l184.204662 0 16.65639 0 59.961804 0 23.317147 0 177.542905 0c16.5575 0 29.9809 13.4229 29.9809 29.9797s-13.4234 29.9797-29.9809 29.9797L568.455894 442.3017l-23.317147 0-59.961804 0-16.65639 0L284.314891 442.3017c-16.5575 0-29.9809-13.4229-29.9809-29.9797S267.7574 382.3423 284.3149 382.3423z"  horiz-adv-x="1000" />

    
    <glyph glyph-name="liebiao1" unicode="&#58989;" d="M140.4445 747.5077c-34.9997 0-63.3646-28.2099-63.3646-62.9913 0-34.7814 28.3649-62.9823 63.3646-62.9823 34.9997 0 63.3646 28.2019 63.3646 62.9823C203.8092 719.2978 175.4442 747.5077 140.4445 747.5077zM924.5431 751.1232 301.577895 751.1232c-14.4268 0-26.0874-11.6151-26.0874-25.9324l0-71.804317c0-14.3263 11.6596-25.9324 26.0874-25.9324l622.965171 0c14.4078 0 26.0874 11.6061 26.0874 25.9324l0 71.804317C950.6304 739.5091 938.9509 751.1232 924.5431 751.1232zM924.5431 476.2606 301.577895 476.2606c-14.4268 0-26.0874-11.6061-26.0874-25.9414l0-71.805316c0-14.3173 11.6596-25.9324 26.0874-25.9324l622.965171 0c14.4078 0 26.0874 11.6151 26.0874 25.9324l0 71.805316C950.6304 464.6555 938.9509 476.2606 924.5431 476.2606zM924.5431 201.3899 301.577895 201.3899c-14.4268 0-26.0874-11.6051-26.0874-25.9234l0-71.805316c0-14.3163 11.6596-25.9404 26.0874-25.9404l622.965171 0c14.4078 0 26.0874 11.6241 26.0874 25.9404l0 71.805316C950.6304 189.7838 938.9509 201.3899 924.5431 201.3899zM140.4445 472.646c-34.9997 0-63.3646-28.2009-63.3646-62.9923 0-34.7824 28.3649-62.9823 63.3646-62.9823 34.9997 0 63.3646 28.2009 63.3646 62.9823C203.8092 444.4442 175.4442 472.646 140.4445 472.646zM140.4445 197.7734c-34.9997 0-63.3646-28.2009-63.3646-62.9813 0-34.7824 28.3649-62.9823 63.3646-62.9823 34.9997 0 63.3646 28.2009 63.3646 62.9823C203.8092 169.5725 175.4442 197.7734 140.4445 197.7734z"  horiz-adv-x="1000" />

    
    <glyph glyph-name="11" unicode="&#59037;" d="M388.9818 512.4585c10.4182 50.0204 17.8381 64.1239 50.1187 89.5621 32.2806 25.4392 90.6824 20.4145 116.3141 5.6125 25.6328-14.8019 52.5793-44.2266 49.5268-93.0601-3.0525-48.8335-42.8657-66.1187-62.1179-94.4108-20.183-31.2187-13.9735-65.7039-6.3488-70.9908 11.5026-9.3276 339.0034-219.5323 372.2998-241.0936 33.2995-21.5644 54.0293-58.7377 51.0239-95.1593-3.0034-36.4227-22.1471-64.3308-93.2547-64.3308H160.119808c-47.8188 0-88.8566 25.5826-94.8951 65.0414-6.0396 39.4557 10.7039 74.0485 34.3624 92.2962 34.7372 26.7919 359.9841 227.4734 371.7837 242.7617 11.7985 15.3272 0.6564 36.6807 12.3167 67.1898 11.6593 30.508 37.4016 39.4076 54.0703 71.7271 16.6687 32.3185 6.7881 69.5706-26.0413 75.8231-42.4161 6.0508-54.8372-19.9649-66.4115-62.9934C433.7306 457.4062 378.5646 462.4392 388.9818 512.4585M122.0352 31.2133c0.8284-32.5181 36.352-37.292 65.7469-37.6975 21.9228-0.6113 608.4731 0.382 632.279 0.4065 23.8039 0.0246 71.209 1.5165 71.209 33.3343s-38.0897 54.2515-38.0897 54.2515l-303.8945 193.1674c0 0-27.9347 18.8621-39.7343 18.4269-11.7985-0.4342-40.8402-18.2979-40.8402-18.2979L160.9523 81.5081C160.9523 81.5081 122.4489 57.6602 122.0352 31.2133"  horiz-adv-x="1024" />

    
    <glyph glyph-name="shanchu" unicode="&#58922;" d="M737.574 551.174l-19.406 0 0-487.34-64.036 0 0 487.34-106.73 0 0-487.34-64.036 0 0 487.34-106.721 0 0-487.34-64.036 0 0 487.34-40.749 0c-48.22 0-87.324 0.699-87.324 0l0-509.185c0-46.88 39.103-84.876 87.324-84.876l465.706 0c48.235 0 87.315 37.996 87.315 84.876l0 509.185c0.006 3.583-39.073 0-87.309 0zM866.834 704.173l-191.358 0 0 52.08c0 30.183-53.943 54.643-85.386 54.643l-170.757 0c-31.427 0-85.379-24.46-85.379-54.643l0-52.08-191.322 0c-24.009 0-43.466-19.115-43.466-42.693 0-23.571 19.45-42.686 43.466-42.686l724.203 0c23.986 0 43.436 19.115 43.436 42.686-0.006 23.579-19.457 42.693-43.436 42.693zM590.097 704.173l-170.757 0 0 21.343 170.757 0 0-21.343z"  horiz-adv-x="1024" />

    
    <glyph glyph-name="zidingyi" unicode="&#59061;" d="M769.28 242.1299l0-193.348608-644.49536 0L124.78464 564.3776l322.24768 0L447.03232 693.276672 60.335104 693.276672l0-708.944896 773.394432 0L833.729536 242.12992 769.28 242.12992zM898.1791 371.029 575.931392 371.029 575.931392 693.276672l322.24768 0L898.179072 371.028992zM511.4819 822.1757l0-515.596288 451.146752 0L962.628652 822.175744 511.481856 822.175744z"  horiz-adv-x="1024" />

    
    <glyph glyph-name="jinzhi" unicode="&#59138;" d="M490.896565 853.314259C219.768471 853.314259 0 633.544282 0 362.417694c0-271.125082 219.768471-490.890541 490.896565-490.890541 271.125082 0 490.890541 219.765459 490.890541 490.890541C981.787106 633.544282 762.021647 853.314259 490.896565 853.314259zM725.668141 315.464282c0-9.429835-7.643859-17.073694-17.073694-17.073694L273.192659 298.390588c-9.429835 0-17.073694 7.643859-17.073694 17.073694l0 93.909835c0 9.429835 7.643859 17.0752 17.073694 17.0752l435.401788 0c9.429835 0 17.073694-7.645365 17.073694-17.0752L725.668141 315.464282z"  horiz-adv-x="1024" />

    
    <glyph glyph-name="xiaoxi" unicode="&#59119;" d="M512.008192 774.26688C273.051648 774.26688 78.6432 616.654848 78.6432 422.920192c0-107.74528 58.932224-207.04768 162.188288-274.128896-23.448576-54.443008-64.457728-99.405824-116.448256-127.394816l-43.823104-23.569408 49.798144-3.05664c11.0336-0.673792 22.188032-1.036288 33.42848-1.036288 48.761856 0 97.8688 6.423552 145.99168 19.0976 52.888576 13.917184 101.99552 34.689024 146.077696 61.712384 18.613248-1.968128 37.504-2.952192 56.152064-2.952192 238.956544 0 433.347584 157.612032 433.347584 351.346688C945.355776 616.654848 750.947328 774.26688 512.008192 774.26688zM512.008192 99.9936c-19.234816 0-38.71232 1.104896-57.895936 3.315712l-5.042176 0.586752-4.317184-2.69312c-42.7008-26.79808-90.616832-47.294464-142.383104-60.91776-41.02656-10.809344-82.829312-16.835584-124.425216-17.94048 42.148864 32.600064 74.834944 76.509184 94.087168 127.11936l4.161536 10.912768-10.049536 6.16448c-100.908032 61.763584-158.78656 155.211776-158.78656 256.413696 0 178.0736 181.510144 322.942976 404.615168 322.942976 223.08864 0 404.59776-144.869376 404.59776-322.942976C916.605952 244.862976 735.096832 99.9936 512.008192 99.9936z"  horiz-adv-x="1024" />

    
    <glyph glyph-name="xinlang" unicode="&#59266;" d="M723.776512 305.851136c-33.368064 6.457344-17.17248 24.4224-17.17248 24.4224s32.651264 53.793792-6.458368 92.900352c-48.4352 48.438272-166.1696-6.150144-166.1696-6.150144-44.951552-13.96736-33.060864 6.356992-26.704896 40.952832 0 40.749056-13.94176 109.688832-133.727232 68.965376-119.681024-40.952832-222.398464-184.44288-222.398464-184.44288-71.450624-95.336448-62.01856-169.042944-62.01856-169.042944 17.861632-162.685952 190.722048-207.328256 325.16608-217.913344 141.463552-11.099136 332.343296 48.770048 390.259712 171.731968C862.422016 250.441472 757.244928 299.186944 723.776512 305.851136zM424.749056 1.41696c-140.389376-6.561792-253.92128 63.840256-253.92128 157.558784 0 93.825024 113.531904 169.042944 253.92128 175.526912 140.544 6.458368 254.278656-51.434496 254.278656-145.052672C679.028736 95.75296 565.293056 7.799552 424.749056 1.41696zM396.76416 272.687872c-141.2608-16.502784-124.910592-148.795392-124.910592-148.795392s-1.460224-41.90208 37.85216-63.248384c82.650112-44.746752 167.734272-17.636352 210.7392 37.875712C563.447808 154.0288 538.179584 289.11488 396.76416 272.687872zM361.140224 87.037696c-26.395648-3.0976-47.616 12.09856-47.616 34.162688 0 21.962752 18.86208 44.976128 45.258752 47.719424 30.291968 2.894848 49.974272-14.582784 49.974272-36.620288C408.757248 110.308096 387.383296 90.01344 361.140224 87.037696zM444.381184 157.95072c-8.91904-6.689792-19.939328-5.766144-24.654848 2.25792-4.92032 7.815168-3.075072 20.320256 5.971968 26.882048 10.48064 7.789568 21.348352 5.559296 26.063872-2.253824C456.476672 176.840448 453.093376 164.846336 444.381184 157.95072zM792.53504 363.1296c11.377664 0 21.041152 8.431616 22.679552 19.400704 0.2048 0.8192 0.308224 1.537024 0.308224 2.459648 17.246208 155.10016-127.06304 128.395264-127.06304 128.395264-12.813312 0-23.117824-10.353664-23.117824-23.294976 0-12.736512 10.304512-23.0912 23.117824-23.0912 103.640064 22.885376 80.77824-80.779264 80.77824-80.779264C769.238016 373.40544 779.695104 363.1296 792.53504 363.1296zM775.697408 633.835264c-49.871872 11.686912-101.203968 1.589248-115.581952-1.152-1.127424-0.1024-2.153472-1.153024-3.177472-1.358848-0.515072-0.1024-0.821248-0.615424-0.821248-0.615424-14.14656-3.997696-24.5248-17.119232-24.5248-32.649216 0-18.45248 14.99136-33.675264 33.649664-33.675264 0 0 18.195456 2.459648 30.49472 7.277568 12.20096 4.92032 115.582976 3.64032 166.890496-82.572288 28.035072-62.891008 12.326912-105.022464 10.35264-111.789056 0 0-6.663168-16.350208-6.663168-32.444416 0-18.553856 15.015936-30.240768 33.57184-30.240768 15.506432 0 28.548096 2.101248 32.342016 28.343296l0.2048 0C987.538432 526.660352 864.984064 612.974336 775.697408 633.835264z"  horiz-adv-x="1024" />

    
    <glyph glyph-name="huifu" unicode="&#59170;" d="M0 896l0-4.096 0-59.825152 0-704.128 0-63.828992 0-0.001024 482.347008 0 285.979648-192.816128-0.36864 192.816128 256.695296 0 0 0.001024 0 63.828992L1024.653312 832.079872l0 59.825152 0 4.096L0 896.001024zM959.642624 127.951872l-255.488 0 0-128.848896L526.123008 127.951872 63.642624 127.951872 63.642624 832.079872l896 0L959.642624 127.951872zM192.154624 511.685632l640 0 0-63.509504-640 0 0 63.509504ZM192.154624 639.741952l255.071232 0 0-63.509504-255.071232 0 0 63.509504ZM192.154624 383.652864l640 0 0-63.954944-640 0 0 63.954944Z"  horiz-adv-x="1024" />

    
    <glyph glyph-name="tongji" unicode="&#58923;" d="M511.68 891.2 511.68 384l507.2 0C1018.88 384 1045.248 831.616 511.68 891.2zM464.128 858.304 464.128 336.64l507.2 0c0 0-21.184-459.84-491.392-459.84 0 0-475.52-7.936-475.52 459.648C4.48 336.448-27.2 798.912 464.128 858.304z"  horiz-adv-x="1024" />

    
    <glyph glyph-name="shezhi" unicode="&#58986;" d="M436.366 787.582c2.58 14.27 18.975 30.512 35.978 30.512s59.203-0.153 76.963 0c17.761 0.153 36.096-12.476 39.166-30.512 3.069-18.036 11.991-70.739 14.572-85.616 2.58-14.876 10.019-20.493 10.019-20.493s23.53-10.171 34.612-14.574c11.083-4.401 21.404 2.734 21.404 2.734s62.238 44.326 74.231 52.826c11.991 8.501 34.866 8.617 44.174-0.454 9.308-9.073 44.782-43.568 58.747-57.837 13.966-14.27 13.799-37.81 5.01-50.095-8.79-12.284-43.567-60.873-50.095-70.13s-7.596-18.89-4.554-26.415c3.041-7.525 10.929-27.021 12.295-30.512 1.366-3.492 8.75-10.658 15.939-11.841s69.69-11.468 89.044-14.655c19.355-3.189 32.881-20.413 32.861-43.031-0.017-17.987 0.059-47.589-0.094-68.309-0.151-20.72-10.599-37.578-32.366-41.332-21.769-3.753-77.833-13.392-86.713-15.138-8.881-1.745-15.42-6.139-18.825-13.359-3.403-7.219-9.411-19.887-12.143-26.11-2.733-6.223-3.584-17.969 1.821-25.502 5.406-7.535 43.417-60.417 51.461-72.714 8.045-12.295 13.721-35.27-4.554-53.281-18.275-18.013-35.295-34.839-51.006-50.095-15.711-15.257-36.889-16.491-53.738-4.555s-56.926 40.303-66.034 46.907c-9.107 6.604-15.738 11.513-28.69 5.92-12.953-5.59-19.81-8.423-27.78-12.295-7.969-3.871-12.282-7.971-14.117-19.127-1.835-11.155-11.005-67.248-14.724-86.678s-17.759-32.358-47.058-32.485c-29.299-0.128-41.29-0.305-63.757 0-22.467 0.304-38.17 12.412-42.049 34.913-3.881 22.503-11.765 68.691-14.421 81.366-2.657 12.676-5.881 19.644-17.002 24.288s-16.622 6.982-22.77 9.412c-6.148 2.43-17.757 4.862-28.843-3.037-11.087-7.899-49.184-35.066-68.006-48.273-18.823-13.205-41.279-10.163-55.257 3.643-13.977 13.809-38.861 38.255-50.702 50.703-11.84 12.448-17.303 34.627-5.161 51.613 12.143 16.987 35.825 50.093 47.665 66.791 11.841 16.7 9.565 19.887 5.162 32.789-4.402 12.905-5.844 14.118-9.715 23.378s-9.63 14.068-22.163 16.091c-12.532 2.022-51.308 8.198-77.419 13.055-26.11 4.858-39.772 18.217-39.772 43.417 0 25.198 0 51.309 0 66.944 0 21.101 12.087 39.797 31.738 43.3 19.65 3.504 62.167 10.444 80.14 13.777 18.823 3.492 23.876 6.078 28.843 17.609 4.965 11.532 9.26 21.101 11.84 28.691 2.58 7.589 0.673 14.547-8.653 27.78-9.326 13.231-29.146 41.441-42.807 60.263-13.663 18.823-16.092 42.506-0.608 57.684 15.485 15.18 41.291 40.38 52.827 52.22 11.538 11.841 32.055 16.907 51.006 3.644 18.953-13.263 49.791-34.914 65.275-45.388 15.484-10.476 20.711-12.153 31.423-7.743 10.711 4.411 30.967 12.752 30.967 12.752s9.238 3.294 11.841 19.126c2.599 15.834 11.99 73.168 14.571 87.437zM449.117 696.958c-3.557-21.99-12.295-35.295-30.057-42.353s-10.823-4.356-28.69-11.84c-17.867-7.484-36.66-5.237-52.372 5.92-15.711 11.157-61.594 44.331-68.31 49.184-6.716 4.852-14.346 3.871-19.582-0.911-5.237-4.783-43.036-43.037-50.095-50.095-7.058-7.059-6.831-12.068-0.911-20.493 5.921-8.425 35.114-48.956 47.362-66.033 12.249-17.078 15.484-35.978 8.197-53.283-7.286-17.305-4.169-10.26-11.84-29.146-7.673-18.885-26.414-27.552-46.451-30.967-20.038-3.415-72.855-12.355-77.874-13.206-5.02-0.851-13.207-3.948-13.207-14.117 0-10.171 0-63.302 0-70.588 0-7.286 4.251-13.209 12.752-15.029 8.5-1.821 66.894-11.52 81.972-14.117 15.078-2.596 32.486-9.107 40.987-28.69 8.5-19.582 4.554-10.522 13.206-30.512 8.653-19.991 2.96-38.709-10.474-57.047-13.435-18.336-38.003-53.731-43.719-61.813-5.716-8.081-6.375-15.484 0-21.86 6.375-6.374 45.693-45.692 49.639-49.638s12.448-5.011 19.582-0.454c7.135 4.555 57.298 41.195 69.677 50.093 12.379 8.9 30.816 13.662 54.649 4.1 23.834-9.563 17.475-7.1 29.146-11.841 11.671-4.741 23.453-22.543 26.413-43.264 2.96-20.72 10.702-69.676 13.662-79.239 2.96-9.564 6.831-12.752 15.484-12.752s60.569 0 69.221 0c8.654 0 13.207 3.871 14.573 11.841 1.367 7.969 9.019 53.141 12.752 75.141 3.733 21.999 10.93 41.593 35.978 51.461 25.046 9.868 6.746 2.724 23.68 9.563s33.853 6.679 51.945-6.416c26.486-19.171 61.318-42.199 68.738-47.322s13.206-6.604 20.038 0c6.831 6.603 44.628 44.629 50.549 50.55 5.921 5.92 5.162 12.75 1.366 18.672-3.795 5.921-46.054 64.397-53.739 75.14-7.683 10.743-8.196 30.74-2.732 45.086s7.053 18.689 11.301 28.755c5.847 13.854 21.869 26.814 41.298 29.926 19.43 3.11 82.458 14.466 86.907 15.245 4.447 0.78 9.638 5.997 9.411 12.144s0 66.262 0 72.865-3.415 12.979-11.841 14.27c-8.425 1.289-72.007 11.84-90.474 14.877-18.465 3.036-30.361 20.645-35.825 34.003-5.465 13.357-2.965 7.137-9.715 23.377-6.749 16.24-5.769 35.522 5.769 52.219 11.538 16.7 46.942 66.618 50.703 71.955 3.76 5.338 3.262 9.942-1.216 14.573-4.477 4.629-44.174 44.175-50.701 50.702s-13.586 6.831-18.825 3.036c-5.236-3.795-74.027-51.401-80.453-55.863-6.428-4.462-27.933-7.058-38.559-2.429-10.625 4.629-22.773 9.524-33.395 13.966-10.624 4.442-25.2 22.164-27.249 34.915s-14.85 85.705-15.939 91.991c-1.089 6.286-7.818 9.867-12.067 9.791-4.252-0.075-67.856 0-74.46 0-6.603 0-11.613-7.363-12.523-11.157-0.912-3.789-10.106-60.89-13.663-82.878zM692.689 383.998c0-99.613-80.751-180.366-180.365-180.366-99.612 0-180.363 80.753-180.363 180.366 0 99.611 80.751 180.364 180.363 180.364 99.614 0 180.365-80.753 180.365-180.364zM512.324 592.595c-115.204 0-208.597-93.392-208.597-208.597 0-115.206 93.393-208.599 208.597-208.599 115.207 0 208.599 93.394 208.599 208.599 0.001 115.205-93.392 208.597-208.599 208.597z"  horiz-adv-x="1024" />

    
    <glyph glyph-name="jinrong" unicode="&#58949;" d="M509.142016 797.426688c1.307648 0 2.941952 0.652288 4.907008 1.958912 3.926016 2.617344 9.160704 7.199744 15.70304 13.743104 7.85408 7.197696 15.706112 12.43136 23.560192 15.705088 7.851008 3.272704 18.325504 2.291712 31.409152-2.942976 6.547456-1.965056 11.780096-4.744192 15.705088-8.343552 3.926016-3.59936 7.688192-7.035904 11.287552-10.304512 3.598336-3.273728 7.524352-6.053888 11.780096-8.344576 4.250624-2.290688 9.653248-3.43552 16.19456-3.43552s12.107776 0.982016 16.689152 2.942976c4.57728 1.965056 8.99584 3.762176 13.248512 5.400576 4.255744 1.634304 8.506368 2.78016 12.762112 3.436544 4.251648 0.651264 9.322496 0 15.213568-1.96608 6.547456-2.617344 10.960896-6.378496 13.251584-11.286528s2.942976-9.977856 1.965056-15.215616c-0.98304-5.234688-3.273728-10.469376-6.873088-15.702016-3.600384-5.239808-8.013824-9.491456-13.251584-12.76416-12.432384-7.849984-21.922816-15.868928-28.466176-24.045568-6.542336-8.180736-13.088768-16.851968-19.631104-26.01472-3.273728-4.57728-6.872064-9.81504-10.797056-15.700992-3.92704-5.891072-7.525376-11.78112-10.799104-17.672192-3.924992-7.19872-8.175616-14.065664-12.75904-20.61312L407.05536 646.26176c-4.57728 7.855104-9.158656 15.379456-13.740032 22.578176-3.926016 6.54336-8.17664 13.084672-12.75904 19.632128-4.581376 6.542336-8.506368 12.433408-11.780096 17.666048-6.542336 9.81504-13.903872 18.486272-22.085632 26.011648-8.17664 7.523328-16.195584 14.2336-24.045568 20.123648-8.508416 5.891072-14.39744 13.903872-17.670144 24.046592-3.268608 10.145792-0.326656 18.816 8.832 26.01472 4.581376 3.267584 9.81504 4.57728 15.706112 3.924992 5.889024-0.657408 12.106752-1.96608 18.648064-3.924992 6.547456-1.965056 12.926976-3.930112 19.141632-5.891072 6.216704-1.965056 11.94496-2.290688 17.1776-0.982016 9.1648 1.965056 16.032768 5.397504 20.614144 10.304512 4.583424 4.908032 12.433408 10.959872 23.55712 18.158592 8.508416 5.233664 17.9968 7.035904 28.466176 5.4016 10.472448-1.639424 18.322432-5.075968 23.556096-10.309632 2.622464-3.273728 5.400576-6.052864 8.344576-8.342528 2.947072-2.291712 6.052864-4.415488 9.325568-6.380544C501.617664 801.678336 505.212928 799.3856 509.142016 797.426688L509.142016 797.426688zM620.0576 601.111552c7.852032-10.472448 17.668096-21.921792 29.448192-34.356224 9.81504-11.128832 21.922816-23.724032 36.320256-37.79072 14.393344-14.071808 31.082496-28.95872 50.057216-44.663808 15.706112-13.743104 31.900672-29.93664 48.589824-48.585728s31.249408-40.409088 43.681792-65.273856c12.433408-24.869888 21.102592-53.497856 26.010624-85.888 4.908032-32.39424 4.087808-68.54656-2.453504-108.466176-5.891072-32.720896-17.504256-63.639552-34.848768-92.755968-17.340416-29.121536-40.403968-54.480896-69.198848-76.07296-28.790784-21.59616-62.984192-38.77376-102.576128-51.531776-39.589888-12.76416-84.576256-19.142656-134.967296-19.142656-51.695616 0-97.501184 7.361536-137.4208 22.085632-39.914496 14.723072-73.781248 33.865728-101.588992 57.422848-27.812864 23.55712-49.898496 49.893376-66.255872 79.014912-16.362496 29.120512-27.15648 58.075136-32.39424 86.870016-5.891072 32.064512-6.706176 62.820352-2.453504 92.266496 4.25472 29.447168 11.942912 57.097216 23.066624 82.945024 11.124736 25.846784 25.028608 49.56672 41.716736 71.163904 16.689152 21.592064 34.844672 40.897536 54.475776 57.911296 17.014784 15.049728 32.39424 29.284352 46.135296 42.699776 13.74208 13.416448 25.196544 25.684992 34.3552 36.808704 11.124736 12.433408 20.9408 24.208384 29.447168 35.33824L620.0576 601.110528 620.0576 601.111552zM512.031744 299.04384l-26.500096 26.504192-20.615168 20.609024c-6.542336 6.547456-11.123712 11.455488-13.740032 14.724096-5.238784 4.5824-12.106752 8.343552-20.614144 11.291648-8.506368 2.942976-15.706112 1.140736-21.595136-5.4016-5.234688-7.197696-6.542336-14.229504-3.926016-21.102592 2.617344-6.873088 5.566464-12.268544 8.834048-16.19456l14.723072-13.741056c7.19872-7.855104 15.053824-16.362496 23.556096-25.522176 9.81504-10.472448 20.614144-21.59616 32.39424-33.37216l-0.982016-20.614144-66.74432 0c-5.891072 0-10.96192-2.290688-15.21664-6.873088-4.251648-4.5824-6.380544-9.490432-6.380544-14.723072 0-5.233664 1.965056-9.816064 5.890048-13.741056 3.924992-3.926016 9.15968-5.891072 15.707136-5.891072l66.74432 0 0-34.3552-66.74432 0c-5.891072 0-10.96192-1.79712-15.21664-5.397504-4.251648-3.59936-6.380544-8.343552-6.380544-14.234624-0.651264-5.23264 1.145856-9.652224 5.397504-13.251584 4.256768-3.59936 9.653248-5.39648 16.19968-5.39648l66.74432 0 0-19.632128c0.658432-9.163776 3.600384-15.543296 8.834048-19.142656 5.23776-3.59936 11.779072-5.39648 19.631104-5.39648 7.85408-0.657408 14.232576 1.79712 19.140608 7.360512 4.908032 5.56032 7.361536 11.287552 7.361536 17.1776l0 19.632128 68.7104 0c6.542336 0 11.94496 1.471488 16.19456 4.41856 4.255744 2.941952 6.053888 7.687168 5.397504 14.229504 0 13.74208-9.15968 20.615168-27.483136 20.615168L538.534912 161.62304l0.98304 33.37216 63.802368 0.98304c9.15968-0.657408 15.702016 1.144832 19.631104 5.39648 3.926016 4.256768 5.886976 9.326592 5.886976 15.217664 0 5.233664-2.123776 9.977856-6.378496 14.229504-4.250624 4.255744-10.962944 6.383616-20.1216 6.383616L538.534912 237.205504l0 18.649088c11.12576 10.467328 21.266432 20.61312 30.430208 30.429184 7.851008 7.851008 15.702016 15.863808 23.55712 24.045568 7.851008 8.180736 13.741056 13.903872 17.667072 17.176576 15.0528 13.089792 18.322432 24.54016 9.816064 34.3552-4.578304 5.890048-10.469376 8.833024-17.668096 8.833024-7.197696 0-13.741056-2.61632-19.631104-7.849984-3.272704-2.617344-8.833024-7.361536-16.687104-14.234624-7.852032-6.867968-15.707136-13.903872-23.559168-21.102592C533.302272 319.000576 523.154432 309.511168 512.031744 299.04384L512.031744 299.04384zM516.011008 299.766784"  horiz-adv-x="1024" />

    
    <glyph glyph-name="shijian" unicode="&#60059;" d="M511.998465 811.976464C229.227934 811.976464 0.004093 582.757922 0.004093 300c0-282.758945 229.224864-511.975441 511.994372-511.975441 282.769508 0 511.997442 229.216495 511.997442 511.975441C1023.995907 582.757922 794.767973 811.976464 511.998465 811.976464zM511.998465-165.433428c-257.066073 0-465.451475 208.398354-465.451475 465.432405 0 257.0801 208.385402 465.432405 465.451475 465.432405 257.066073 0 465.451475-208.354352 465.451475-465.432405C977.44994 42.966972 769.064538-165.433428 511.998465-165.433428zM767.997186 299.997953 535.269401 299.997953 535.269401 602.530244c0 12.861936-10.428941 23.271006-23.270936 23.271006-12.839949 0-23.272983-10.408047-23.272983-23.271006L488.725482 276.728994c0-12.841469 10.433034-23.27203 23.272983-23.27203l255.998721 0c12.839949 0 23.272983 10.43056 23.272983 23.27203C791.268122 289.588883 780.837135 299.997953 767.997186 299.997953z"  horiz-adv-x="1024" />

    
    <glyph glyph-name="youjian" unicode="&#59002;" d="M959.715317 160.151769c0-19.61985-5.520963-37.818327-14.375994-53.829999L662.623029 422.640042l279.655459 244.668419c10.878191-17.269315 17.435805-37.545104 17.435805-59.459207L959.714294 160.151769zM512.000512 365.200842l389.127102 340.471368c-15.959114 8.744151-33.939341 14.100136-53.340998 14.100136l-671.572209 0c-19.429288 0-37.411561-5.355985-53.314391-14.100136L512.000512 365.200842zM620.4836 385.803066l-90.067939-78.861092c-5.27229-4.589528-11.830928-6.885827-18.416173-6.885827-6.588315 0-13.14593 2.296299-18.41822 6.886851l-90.094546 78.861092L117.188711 65.443757c17.161548-10.767228 37.273409-17.216103 59.025697-17.216103l671.572209 0c21.752288 0 41.863125 6.450922 59.024673 17.216103L620.4836 385.803066zM81.719465 667.307438c-10.876144-17.269315-17.433759-37.545104-17.433759-59.459207l0-447.696462c0-19.61985 5.492309-37.818327 14.373948-53.829999l282.69071 316.370461L81.719465 667.307438z"  horiz-adv-x="1024" />

    
    <glyph glyph-name="ceshi" unicode="&#59089;" d="M891.584 837.632 132.416 837.632c-40.96 0-74.176-33.216-74.176-74.176l0-758.912c0-40.96 33.216-74.176 74.176-74.176l759.168 0c40.96 0 74.176 33.216 74.176 74.176L965.76 763.456C965.696 804.416 932.48 837.632 891.584 837.632zM555.136 761.344l334.336 0 0-37.632L555.136 723.712 555.136 761.344zM463.744 780.416c20.928 0 37.888-16.96 37.888-37.888S484.672 704.64 463.744 704.64c-20.928 0-37.888 16.96-37.888 37.888S442.816 780.416 463.744 780.416zM334.464 780.416c20.928 0 37.888-16.96 37.888-37.888S355.392 704.64 334.464 704.64 296.64 721.6 296.64 742.528 313.6 780.416 334.464 780.416zM205.248 780.416c20.928 0 37.888-16.96 37.888-37.888S226.112 704.64 205.248 704.64 167.36 721.6 167.36 742.528 184.32 780.416 205.248 780.416zM889.536 6.528 134.464 6.528 134.464 647.936l755.136 0L889.6 6.528zM477.824 318.272c0 10.56 8.576 19.2 19.2 19.2l321.28 0c10.56 0 19.2-8.576 19.2-19.2 0-10.56-8.576-19.2-19.2-19.2l-321.28 0C486.4 299.136 477.824 307.712 477.824 318.272zM477.824 408.512c0 10.56 8.576 19.2 19.2 19.2l321.28 0c10.56 0 19.2-8.576 19.2-19.2 0-10.56-8.576-19.2-19.2-19.2l-321.28 0C486.4 389.312 477.824 397.888 477.824 408.512zM477.824 498.688c0 10.56 8.576 19.2 19.2 19.2l321.28 0c10.56 0 19.2-8.576 19.2-19.2 0-10.56-8.576-19.2-19.2-19.2l-321.28 0C486.4 479.552 477.824 488.128 477.824 498.688zM477.824 588.928c0 10.56 8.576 19.2 19.2 19.2l321.28 0c10.56 0 19.2-8.576 19.2-19.2s-8.576-19.2-19.2-19.2l-321.28 0C486.4 569.792 477.824 578.368 477.824 588.928zM203.648 299.136l227.712 0c10.56 0 19.2 8.576 19.2 19.2L450.56 588.928c0 10.56-8.576 19.2-19.2 19.2L203.648 608.128c-10.56 0-19.2-8.576-19.2-19.2l0-270.656C184.448 307.712 193.024 299.136 203.648 299.136zM222.784 569.792 412.16 569.792l0-232.32L222.784 337.472 222.784 569.792z"  horiz-adv-x="1024" />

    
    <glyph glyph-name="filter" unicode="&#59414;" d="M608.256-64c-17.696 0-32 14.304-32 32L576.256 448c0 7.936 2.944 15.584 8.256 21.44l208.8 234.496L230.432 703.936l209.216-234.656c5.216-5.856 8.096-13.44 8.096-21.312l0-288.768 50.848-41.152c13.76-11.136 15.872-31.264 4.736-44.992s-31.264-15.84-44.992-4.736l-62.72 50.752c-7.52 6.048-11.872 15.232-11.872 24.864l0 291.872L135.136 714.656C126.752 724.064 124.672 737.536 129.824 749.056 134.976 760.544 146.432 767.968 159.04 767.968l706.336 0c12.672 0 24.128-7.456 29.248-19.008s2.976-25.056-5.504-34.432l-248.864-278.816L640.256-32C640.256-49.696 625.952-64 608.256-64z"  horiz-adv-x="1024" />

    
    <glyph glyph-name="search" unicode="&#58978;" d="M439.323351 120.52219c-49.280352 0-97.09834 9.656941-142.126681 28.699646-43.480015 18.388812-82.522793 44.706201-116.043584 78.225619s-59.841305 72.560596-78.230871 116.03883C83.878729 388.513804 74.222416 436.330856 74.222416 485.609189c0 49.284473 9.656313 97.104595 28.699798 142.133138 18.388542 43.479257 44.71008 82.520435 78.231894 116.03883 33.518745 33.515325 72.562546 59.832713 116.043584 78.219479 45.027318 19.039635 92.846329 28.694529 142.125658 28.694529 49.280352 0 97.099364-9.653871 142.126681-28.694529 43.481039-18.385742 82.525863-44.704155 116.044608-78.220502 33.520791-33.518395 59.842328-72.559573 78.230871-116.03883 19.042462-45.028543 28.699798-92.848665 28.699798-142.133138 0-49.278333-9.657336-97.095385-28.701845-142.122905-18.388542-43.47721-44.708033-82.520435-78.228824-116.03883s-72.563569-59.838853-116.043584-78.226642C536.422715 130.177084 488.603703 120.52219 439.323351 120.52219zM439.323351 797.483242c-171.975699 0-311.887855-139.906423-311.887855-311.875077S267.347652 173.734112 439.323351 173.734112s311.887855 139.907447 311.887855 311.874053S611.299051 797.483242 439.323351 797.483242zM890.678206-48.734702c-22.121716 0-42.90387 8.562003-58.541653 24.115234L674.672953 128.025071l37.039062 38.20616 157.888289-153.058978c5.606924-5.606695 13.091693-8.692986 21.077901-8.692986 7.983139 0 15.464837 3.087315 21.070738 8.69094 5.616135 5.622044 8.715856 13.126972 8.715856 21.123087 0 7.980765-3.091535 15.46318-8.702552 21.067828l-0.301888 0.306992L758.714395 213.230662l38.207726 37.035498 152.611906-157.427472c15.571265-15.638165 24.144876-36.422538 24.144876-58.549487 0-22.195511-8.625801-43.054585-24.287121-58.735729C933.723298-40.112324 912.876674-48.734702 890.678206-48.734702zM281.015489 327.245392c-42.340005 42.320874-65.652899 98.584296-65.643689 158.421102 0.008187 59.818387 23.319034 116.074645 65.637549 158.4078l37.634651-37.619806c-66.60666-66.629513-66.60973-175.00071-0.007163-241.577011L281.015489 327.245392z"  horiz-adv-x="1024" />

    
    <glyph glyph-name="jianchafenxi" unicode="&#59090;" d="M883.430855 735.370603 883.430855 785.566842 576.041637 785.566842l61.470475-50.196239L883.430855 735.370603zM758.793193 534.587694c63.495681 0 124.637662 47.332005 124.637662 117.17163l0 58.513672L627.589729 710.272995l-51.548092-60.737316 60.484991 0C636.526629 581.919698 692.964278 534.587694 758.793193 534.587694zM402.701815 113.285369l182.058749 247.40474 0-216.488613 273.059981 340.189959-273.059981 0c-28.163564 0-46.604297-10.834766-60.703988-30.916127l-212.374413-278.339286C268.65242 116.075925 363.065495 57.727005 402.701815 113.285369zM897.220471 484.391455 613.471619 139.294742l315.268998 0 0-62.74402L550.432351 76.550723l0-94.117564 409.846832 0L960.279182 408.642237C960.279182 454.186526 939.502145 484.391455 897.220471 484.391455zM166.177409 509.490086l-34.146057 0c-31.683881 0-68.311558-29.330002-68.311558-60.939931l0.019444-317.627081-0.019444 0c0-31.573089 40.768143-48.098461 68.311558-48.098461l8.53677 0 0-66.921155c0-27.761274 27.396053-33.470299 55.158464-33.470299l248.289839 0c27.779808 0 55.177908 5.764284 55.177908 33.470299l0 66.921155L166.177409 82.824613 166.177409 509.490086z"  horiz-adv-x="1024" />

    
    <glyph glyph-name="lingdaojuece" unicode="&#59091;" d="M339.789442 487.32118 339.789442 487.32118 87.215867 487.32118l0 0c-13.342413-4.753257-22.961885-19.473517-22.961885-34.440393s9.619472-29.687136 22.961885-34.440393l0 0 91.845494 0 0-436.245665 0 0c4.753452-13.341866 19.485572-22.960944 34.441805-22.960944 14.956233 0 29.688353 9.618055 34.441805 22.960944l0 0L247.944971 418.440393l91.845494 0 0 0c13.342413 4.754281 22.961885 19.473517 22.961885 34.440393S353.131855 482.567923 339.789442 487.32118zM87.215867 556.201967 87.215867 556.201967l252.573575 0 0 0c13.342413 4.754281 22.961885 19.473517 22.961885 34.440393 0 14.965853-9.619472 29.687136-22.961885 34.440393l0 0-91.845494 0L247.943948 785.805272l0 0c-4.754475 13.340843-19.463058 22.960944-34.441805 22.960944-14.978747 0-29.688353-9.619078-34.441805-22.960944l0 0 0-160.722518-91.845494 0 0 0c-13.342413-4.753257-22.961885-19.473517-22.961885-34.440393C64.255006 575.675484 73.873455 560.956248 87.215867 556.201967zM684.208511 510.281101 684.208511 510.281101l252.574598 0 0 0c13.34139 4.754281 22.961885 19.473517 22.961885 34.440393s-9.619472 29.687136-22.961885 34.440393l0 0-91.845494 0L844.937615 785.805272l0 0c-4.754475 13.340843-19.463058 22.960944-34.441805 22.960944-14.978747 0-29.688353-9.619078-34.440781-22.960944l0 0 0-206.643384-91.845494 0 0 0c-13.34139-4.753257-22.961885-19.473517-22.961885-34.440393S670.867122 515.035382 684.208511 510.281101zM936.783109 441.400315 936.783109 441.400315 684.208511 441.400315l0 0c-13.34139-4.754281-22.961885-19.473517-22.961885-34.440393s9.619472-29.687136 22.961885-34.440393l0 0 91.845494 0L776.054006-17.805272l0 0c4.753452-13.341866 19.485572-22.960944 34.440781-22.960944 14.956233 0 29.688353 9.618055 34.441805 22.960944l0 0L844.936591 372.519528l91.845494 0 0 0c13.34139 4.753257 22.961885 19.473517 22.961885 34.440393S950.124499 436.647057 936.783109 441.400315zM638.285764 280.677796 638.285764 280.677796 385.712189 280.677796l0 0c-13.342413-4.754281-22.961885-19.473517-22.961885-34.440393s9.619472-29.687136 22.961885-34.43937l0 0 91.822981 0L477.53517-17.805272l0 0c4.754475-13.341866 19.508085-22.960944 34.464318-22.960944 14.95521 0 29.688353 9.618055 34.441805 22.960944l0 0L546.441293 211.798033l91.844471 0 0 0c13.34139 4.753257 22.961885 19.472494 22.961885 34.43937S651.627154 275.924539 638.285764 280.677796zM638.285764 418.440393 638.285764 418.440393l-91.844471 0L546.441293 785.805272l0 0c-4.754475 13.340843-19.464081 22.960944-34.441805 22.960944s-29.710866-9.619078-34.464318-22.960944l0 0L477.53517 418.440393l-91.822981 0 0 0c-13.342413-4.754281-22.961885-19.473517-22.961885-34.440393 0-14.965853 9.619472-29.686113 22.961885-34.440393l0 0L638.285764 349.559607l0 0c13.34139 4.754281 22.961885 19.473517 22.961885 34.440393C661.247649 398.965853 651.627154 413.686113 638.285764 418.440393z"  horiz-adv-x="1024" />

    
    <glyph glyph-name="zuzhijigou" unicode="&#58958;" d="M195.483029 374.68689l297.897663 0 0-93.079932 37.236568 0 0 93.079932L828.515947 374.68689l0-111.697965 37.237592 0L865.753539 411.922956 530.617261 411.922956l0 74.471109-37.236568 0 0-74.471109L158.245438 411.922956l0-148.934031 37.237592 0L195.483029 374.68689zM269.957189 225.75286 83.771278 225.75286c-10.290789 0-18.617772-8.335852-18.617772-18.61701l0-148.95245c0-10.272971 8.326984-18.618033 18.617772-18.618033l186.185912 0c10.273392 0 18.618796 8.345062 18.618796 18.618033l0 148.95245C288.575985 217.417007 280.230581 225.75286 269.957189 225.75286zM605.092444 225.75286 418.906533 225.75286c-10.290789 0-18.618796-8.335852-18.618796-18.61701l0-148.95245c0-10.272971 8.328007-18.618033 18.618796-18.618033l186.185912 0c10.273392 0 18.618796 8.345062 18.618796 18.618033l0 148.95245C623.71124 217.417007 615.365836 225.75286 605.092444 225.75286zM940.226676 225.75286 754.040764 225.75286c-10.291812 0-18.618796-8.335852-18.618796-18.61701l0-148.95245c0-10.272971 8.328007-18.618033 18.618796-18.618033l186.185912 0c10.273392 0 18.618796 8.345062 18.618796 18.618033l0 148.95245C958.845471 217.417007 950.500067 225.75286 940.226676 225.75286zM363.050145 542.24714l297.897663 0c10.273392 0 18.618796 8.335852 18.618796 18.618033L679.566604 709.808414c0 10.290367-8.345404 18.627243-18.618796 18.627243L363.050145 728.435657c-10.290789 0-18.618796-8.335852-18.618796-18.627243l0-148.94324C344.431349 550.582993 352.759356 542.24714 363.050145 542.24714z"  horiz-adv-x="1024" />

    
    <glyph glyph-name="mima" unicode="&#59132;" d="M762.829 441.086 762.829 588.792c0 135.399-109.785 245.184-245.184 245.184-1.686 0-2.906 0.098-4.566 0.049-1.368 0.024-3.102-0.073-4.493-0.073-135.43 0-245.166-109.785-245.166-245.184l0-147.682-86.782 0 0-507.125 675.268 0L851.906 441.086 762.829 441.086zM590.924 26.935 437.785 26.935l37.506 163.944c-22.434 13.356-37.506 37.774-37.506 65.782 0 42.293 34.283 76.576 76.563 76.576 42.292 0 76.575-34.283 76.575-76.576 0-28.117-15.2-52.621-37.787-65.954L590.924 26.935zM640.151 441.086 386.073 441.086 386.073 588.768c0 67.541 54.966 122.482 122.513 122.482 1.929 0 5.982 0.098 5.982 0.098s2.051-0.073 3.077-0.073c67.54 0 122.506-54.941 122.506-122.482L640.151 441.086z"  horiz-adv-x="1024" />

    
    <glyph glyph-name="jinggao" unicode="&#59135;" d="M951.07921 80.293977 557.94019 707.685054c-9.751494 15.609513-27.770626 25.317619-46.922605 25.317619-19.200077 0-37.172135-9.708106-46.967633-25.317619L70.895582 80.293977c-10.410531-16.618493-10.259075-37.169551 0.389896-53.613058 10.015518-15.47853 27.421664-24.706705 46.553176-24.706705l786.31795 0c19.157096 0 36.561195 9.228175 46.532709 24.706705C961.357728 43.125449 961.488717 63.675484 951.07921 80.293977L951.07921 80.293977zM561.217977 102.02593c0-5.77554-1.790861-11.501962-5.293785-15.872502-3.540788-4.375657-8.174513-6.561439-12.765257-6.561439l-62.625898 0c-4.634748 0-9.26745 2.184759-12.765257 6.561439-3.541811 4.370541-5.293785 10.102079-5.293785 15.872502l0 37.383422c0 5.731538 1.751974 11.501962 5.293785 15.872502 3.497807 4.375657 8.130509 6.561439 12.765257 6.561439l62.625898 0c4.590744 0 9.224469-2.185782 12.765257-6.561439 3.502924-4.370541 5.293785-10.146081 5.293785-15.872502L561.217977 102.02593 561.217977 102.02593zM555.881212 224.681458c-3.541811-2.930749-8.175536-4.414543-12.809261-4.370541l-62.230885 0.258896c-4.590744 0-9.186605 1.488911-12.684413 4.375657-3.497807 2.926656-5.248758 6.732331-5.292762 10.580986l-0.390919 105.60213L462.472971 506.982986c0 3.804652 1.746857 7.653307 5.249781 10.584056 3.541811 2.926656 8.174513 4.414543 12.765257 4.414543l62.53789 0c4.634748 0 9.268473-1.486864 12.766281-4.414543 3.546928-2.930749 5.292762-6.779404 5.292762-10.584056l0-164.630525 0.089031-107.003036C561.217977 231.456768 559.427116 227.608114 555.881212 224.681458L555.881212 224.681458zM555.881212 224.681458"  horiz-adv-x="1024" />

    
    <glyph glyph-name="weizhi" unicode="&#58926;" d="M511.652-64.092C401.015 68.817 296.409 199.219 219.596 350.202c-60.231 118.387-55.223 229.897 18.845 339.15C344.627 845.987 574.383 878.223 721.305 756.864c79.674-65.813 121.81-150.188 124.741-254.054 1.294-45.957-12.908-87.824-31.472-128.469C740.154 211.413 627.971 74.7 511.652-64.092zM510.81 354.762c91.877-0.574 167.787 74.472 169.328 167.415 1.531 92.207-73.998 168.214-169.089 170.167-89.528 1.838-168.027-75.622-167.913-165.684C343.262 431.778 417.817 355.342 510.81 354.762z"  horiz-adv-x="1024" />

    
    <glyph glyph-name="xitongguanli" unicode="&#59025;" d="M796.56 271.488c-4.787 4.06-7.258 6.381-9.951 8.397-27.729 20.746-37.706 44.177-32.312 82.12 19.795 139.2-92.982 253.862-206.766 266.226-143.534 15.595-261.649-74.745-279.872-212.706-21.758-164.749 123.691-302.561 287.275-271.322 18.367 3.507 30.77-0.444 42.8-13.749 8.519-9.426 19.269-16.839 32.576-28.182-37.465-19.614-38-50.337-36.032-81.817 1.934-31.019-3.792-60.899-34.642-73.403-33.668-13.652-71.814-16.497-103.265 3.987-14.449 9.416-21.927 32.727-27.662 51.261-4.348 14.043-0.682 30.497-1.037 45.868-0.561 24.523-11.766 42.675-34.485 52.238-22.689 9.55-43.466 5.466-61.287-11.902-11.01-10.733-21.728-21.782-33.047-32.187-21.929-20.154-52.557-26.03-75.011-9.682-19.624 14.29-37.676 32.247-52.071 51.791-15.778 21.415-9.507 54.489 9.908 75.24 10.468 11.202 22.018 21.394 32.736 32.374 15.628 15.997 21.238 35.361 14.451 56.579-7.077 22.115-23.326 35.928-46.421 38.969-17.715 2.334-35.787 1.869-53.698 2.759-38.667 1.923-61.137 24.396-62.79 63.154-0.51 11.938-0.475 23.932-0.044 35.877 1.438 39.95 26.591 64.653 66.661 65.534 14.515 0.321 29.091-0.569 43.565 0.284 24.092 1.419 42.925 12.607 51.891 35.364 8.916 22.619 3.947 43.568-13.614 61.043-9.676 9.632-19.344 19.289-28.81 29.131-4.102 4.266-8.374 8.615-11.399 13.628-21.137 35.006-8.63 69.82 38.717 108.675 27.553 22.614 61.046 21.492 87.943-3.296 11.299-10.416 21.797-21.706 33.137-32.071 18.172-16.614 39.634-20.271 61.752-10.701 21.183 9.161 33.173 26.008 32.973 50.277-0.135 16.219-0.211 32.497 0.961 48.655 2.279 31.379 22.6 55.867 53.183 60.232 20.025 2.857 41.097 2.825 61.136 0.035 28.811-4.01 49.532-29.517 51.099-59.15 0.907-17.042-0.78-34.255 0.602-51.234 1.938-23.696 12.783-41.883 36.224-51.195 23.642-9.386 43.375-3.283 60.821 13.607 7.362 7.13 14.27 14.728 21.521 21.974 4.829 4.825 9.546 9.872 14.937 14.019 34.24 26.354 72.375 15.233 113.538-32.877 25.088-29.321 23.421-64.149-4.147-91.51-10.899-10.823-22.359-21.289-31.885-33.25-14.862-18.645-19.835-40.28-8.696-62.249 10.428-20.565 28.55-31.026 52.091-31.014 14.525 0.01 29.075 0.517 43.565-0.183 34.561-1.669 59.299-22.181 63.582-55.214 2.394-18.446 2.414-37.738-0.076-56.165-4.433-32.802-30.218-54.011-63.665-55.29-10.238-0.394-20.557-0.75-30.749 0.052C836.169 302.587 814.156 294.321 796.56 271.488zM338.258 429.491c21.121-22.148 41.893-44.64 63.435-66.368 41.062-41.423 94.444-42.709 133.993-3.769 40.801 40.167 40.176 92.701-2.604 135.16-21.797 21.63-45.008 41.835-65.653 66.084 55.236 16.457 105.272 7.429 150.091-23.883 71.038-49.637 97.56-133.417 68.579-215.042-5.515-15.536-0.922-23.327 8.905-32.948 53.093-51.977 106.115-104.035 158.637-156.591 30.136-30.161 28.549-66.243-2.9-93.531-25.319-21.974-56.895-21.155-82.589 3.972-53.143 51.96-105.89 104.325-158.04 157.269-12.111 12.295-21.583 15.469-39.448 9.458-69.947-23.537-133.733-9.168-187.041 41.685-50.077 47.768-65.194 107.336-52.993 173.965C333.173 426.463 335.717 427.976 338.258 429.491zM810.96 117.443c-17.687-2.092-29.633-11.271-31.234-30.076-1.458-17.118 14.38-32.655 31.785-32.686 17.656-0.031 32.291 14.896 31.279 32.877C841.698 106.9 829.987 115.85 810.96 117.443z"  horiz-adv-x="1024" />

    
    <glyph glyph-name="daoru" unicode="&#58973;" d="M733.546019 479.26143c1.444963 1.337459 1.999616 3.474118 1.237224 5.417372-0.761369 1.948371-2.62181 3.134381-4.592773 3.134381L592.787976 487.813183l0.295747 203.324395c0.005117 3.792365-1.43473 7.586777-4.32875 10.480681-2.889926 2.894927-6.683467 4.344949-10.477007 4.344949L443.699904 705.963209c-3.788423 0-7.581964-1.450022-10.477007-4.344949-2.888903-2.893904-4.329773-6.688316-4.32568-10.480681l0.274256-203.324395L291.76284 487.813183c-1.966869 0-3.826287-1.184986-4.593796-3.134381-0.762392-1.944278-0.206716-4.079914 1.239271-5.417372L500.90694 282.208866c2.644324-2.447744 6.181004-3.949954 10.066645-3.949954 3.888711 0 7.427438 1.503234 10.067669 3.949954L733.546019 479.26143 733.546019 479.26143zM945.198337 269.515801 811.977231 373.46406c-7.54717 5.888092-21.554717 10.705808-31.126063 10.705808l-36.524209 0 151.144995-128.773618L701.717941 255.396251l-62.765846-92.779918L382.435305 162.616333l-62.763799 93.462462-192.388871-0.680497 156.420339 128.771571-42.650975 0c-9.57237 0-23.579917-4.817716-31.127087-10.705808L76.703806 269.515801c-7.54717-5.889115-11.288519-18.151369-8.314679-27.25059l53.146402-162.622473c2.973841-9.099221 13.239015-16.543758 22.811385-16.543758l734.23473 0c9.57237 0 19.801727 7.455794 22.73361 16.568318l52.278606 162.572331C956.522673 251.353176 952.745507 263.626686 945.198337 269.515801z"  horiz-adv-x="1024" />

    
    <glyph glyph-name="daochu" unicode="&#58945;" d="M289.429613 567.890826c-1.444963-1.338482-1.999616-3.474118-1.237224-5.417372 0.761369-1.948371 2.62181-3.134381 4.592773-3.134381l137.402494 0-0.295747-224.813783c-0.005117-3.791342 1.43473-7.585754 4.32875-10.479658 2.889926-2.894927 6.683467-4.344949 10.477007-4.344949l134.578062 0c3.788423 0 7.581964 1.450022 10.475983 4.344949 2.888903 2.893904 4.329773 6.688316 4.32568 10.479658l-0.274256 224.813783L731.210745 559.339073c1.967893 0 3.826287 1.184986 4.593796 3.134381 0.762392 1.943255 0.206716 4.07889-1.239271 5.417372l-212.497602 197.052564c-2.645347 2.447744-6.181004 3.949954-10.066645 3.949954-3.888711 0-7.427438-1.503234-10.067669-3.949954L289.429613 567.890826 289.429613 567.890826zM945.113399 270.283279 811.892293 373.208234c-7.54717 5.888092-21.554717 10.705808-31.126063 10.705808l-77.131564 0 128.392965-127.934509L704.013303 255.979534l-65.146146-92.5947L382.350368 163.384834l-62.363671 92.611072L191.962136 255.995907 319.539495 383.914042l-78.572434 0c-9.57237 0-23.579917-4.817716-31.127087-10.705808L76.618868 270.283279c-7.54717-5.889115-11.288519-18.151369-8.314679-27.25059l53.146402-162.622473c2.973841-9.099221 13.239015-16.543758 22.811385-16.543758l734.23473 0c9.57237 0 19.801727 7.455794 22.73361 16.568318l52.278606 162.572331C956.437736 252.120654 952.660569 264.394164 945.113399 270.283279z"  horiz-adv-x="1024" />

    
    <glyph glyph-name="daibanxiangmu" unicode="&#59068;" d="M641.427 353.662c-12.275 13.284-26.011 28.742-38.384 49.719l-218.883-135.161-331.744 203.587-44.093-42.595 375.839-239.503 257.266 163.95zM582.729 448.19c-10.107 30.086-16.884 68.363-17.139 118.631l-40.874 0c-6.918 0-12.529 5.37-12.529 11.973 0 6.612 0 35.916 0 35.916l163.748 0-291.775 185.94-375.838-239.503 375.839-239.493 198.569 126.537zM677.609 291.379c0 8.475-1.905 15.913-5.212 22.906l-288.238-178.004-331.744 203.6-44.093-42.582 375.839-239.503 265.021 168.892c16.267 23.114 28.428 43.179 28.428 64.695zM755.882 380.477l29.228-31.649c13.141-14.144-2.226-23.966 0.591-29.402 2.837-5.435 5.172-15.824 7.05-31.146 0.459-4.628 1.53-11.57 3.165-20.867 1.637 9.297 2.685 16.238 3.142 20.867 1.877 15.323 4.212 25.712 7.028 31.146 2.795 5.435-12.615 15.257 0.437 29.402l29.075 31.649c19.842 21.324 32.675 36.636 38.503 45.913-34.88-21.87-45.444-32.795-78.449-32.795-33.004 0-43.481 10.925-78.142 32.795 5.631-9.278 18.421-24.589 38.37-45.913zM1002.817 551.618c6.438 0 11.677 5.185 11.677 11.569 0 6.396 0 34.704 0 34.704l-443.468 0c0 0 0-28.309 0-34.704 0-6.384 5.217-11.569 11.677-11.569l38.066 0c0.959-199.409 104.357-203.577 104.357-266.132 0-62.249-101.519-111.884-103.44-265.891l-38.983 0c-6.462 0-11.677-5.195-11.677-11.569 0-6.396 0-34.706 0-34.706l443.47 0c0 0 0 28.309 0 34.706 0 6.373-5.238 11.569-11.677 11.569l-36.606 0c-1.921 154.009-103.461 203.642-103.461 265.891 0 62.556 103.375 66.725 104.358 266.132l35.708 0zM807.046 285.487c0-60.394 101.519-111.314 103.441-265.891l-20.845 0c-4.102 13.706 5.5 30.208-18.205 42.43l-30.799 15.629c-19.361 9.974-33.259 16.719-36.993 20.19-3.732 3.469-8.163 11.241-13.293 23.289-4.933-12.048-11.67-19.818-15.513-23.289-3.886-3.47-10.884-10.213-30.354-20.19l-30.953-15.629c-23.837-12.223-20.165-28.724-24.314-42.43l-18.819 0c1.921 154.576 110.448 205.499 110.448 265.891 0 62.839-103.375 66.725-104.334 266.132l234.865 0c-0.961-199.409-104.336-203.293-104.336-266.132z"  horiz-adv-x="1024" />

    
    <glyph glyph-name="baocun" unicode="&#59211;" d="M867.097-148.73c-236.782 0-473.561 0-710.319 0-1.621 0.57-3.219 1.368-4.881 1.662-41.11 7.36-68.489 30.932-82.43 70.13-2.399 6.751-3.64 13.94-5.426 20.924 0 236.778 0 473.558 0 710.32 0.566 1.638 1.345 3.215 1.662 4.897 8.433 45.148 35.242 73.16 79.338 84.998 3.893 1.052 7.823 1.894 11.737 2.838 203.532 0 407.047 0 610.579 0 25.424-5.612 45.38-20.776 63.487-38.124 30.071-28.829 59.594-58.25 88.509-88.258 18.188-18.861 34.527-39.428 40.456-66.068 0-203.536 0-407.071 0-610.603-0.565-1.62-1.344-3.198-1.66-4.88-8.434-45.168-35.223-73.157-79.34-85.019C874.939-146.943 871.006-147.804 867.097-148.73zM511.989-114.452c101.755 0 203.491-0.024 305.228 0.04 25.886 0 39.532 13.606 39.532 39.22 0.021 111.658 0.021 223.32 0 334.962 0 25.717-13.752 39.597-39.216 39.597-203.789 0.02-407.553 0.02-611.321 0-25.063-0.023-39.091-13.924-39.091-38.862-0.041-111.935-0.041-223.89 0.02-335.824 0-4.059 0.108-8.222 1.032-12.134 4.186-17.705 17.476-26.958 38.609-26.979C308.518-114.477 410.253-114.452 511.989-114.452zM494.429 402.194c72.591 0 145.161 0 217.729 0 27.884 0.02 41.302 13.374 41.302 41.174 0.021 76.079 0.021 152.142 0 228.221 0 27.989-13.146 41.154-41.197 41.154-145.158 0.02-290.296 0.02-435.434 0-27.487 0-40.922-13.29-40.942-40.628-0.064-76.355-0.064-152.708 0-229.083 0.02-27.315 13.604-40.817 40.837-40.817C349.291 402.194 421.861 402.194 494.429 402.194zM581.782 677.518c34.13 0 67.269 0 101.189 0 0-79.969 0-159.54 0-239.617-33.668 0-67.06 0-101.189 0C581.782 517.556 581.782 597.147 581.782 677.518z"  horiz-adv-x="1024" />

    
    <glyph glyph-name="zhishi" unicode="&#59116;" d="M822.145605-63.969685 270.772798-63.969685 270.772798 694.137503l241.224644 0 0-314.440505 122.026077 92.675726 119.200613-92.675726L753.224132 694.137503l137.843969 0 0-689.188538c0-38.025035-30.893857-68.916603-68.921473-68.916603l0 0L822.145605-63.969685zM634.023519 517.531226l-87.563806-68.917626L546.459713 728.596316 718.761861 728.596316l0-279.982716L634.023519 517.531226 634.023519 517.531226zM167.3911 763.055129l0-34.458813c0-19.047822 15.411623-34.46086 34.459201-34.46086l34.462272 0 0-758.107187-34.462272 0c-38.094134 0-68.919426 30.891568-68.919426 68.917626L132.930875 763.054105c0 38.092573 30.825292 68.917626 68.919426 68.917626l620.295304 0c25.441458 0 47.383065-13.933337 59.364425-34.458813L201.851325 797.512918C182.802723 797.512918 167.3911 782.100904 167.3911 763.055129L167.3911 763.055129 167.3911 763.055129z"  horiz-adv-x="1024" />

    
    <glyph glyph-name="101" unicode="&#59269;" d="M690.228 242.497c80.938 56.495 134.005 150.169 134.005 256.361 0 172.646-139.958 312.606-312.604 312.606s-312.602-139.96-312.602-312.606c0-106.065 52.947-199.632 133.722-256.149C150.589 171.316 21.39-5.606 21.39-213.078c0-0.02 0.002-0.06 0.002-0.06l87.766 0c0 0.243-0.036 0.477-0.036 0.719 0 205.731 154.886 374.877 354.354 398.206 2.117 0.19 56.069 4.944 100.343-0.757 1.151-0.153 2.303-0.306 3.451-0.468 0.171-0.024 0.341-0.05 0.512-0.075 194.538-27.795 344.181-194.685 344.181-396.906 0-0.242-0.036-0.476-0.036-0.719l89.079 0.02c0 0 0.002 0.02 0.002 0.04C1001.009-5.822 872.086 170.958 690.228 242.497zM511.72 264.593c-129.337 0-234.18 104.844-234.18 234.178 0 129.332 104.844 234.176 234.18 234.176 129.33 0 234.176-104.844 234.176-234.176C745.896 369.437 641.05 264.593 511.72 264.593z"  horiz-adv-x="1024" />

    
    <glyph glyph-name="32" unicode="&#58910;" d="M937.92 772.608c-14.656 14.656-32.192 22.528-52.608 22.528L138.688 795.136c-20.416 0-37.952-7.808-52.672-22.528C71.36 757.952 64 739.968 64 719.552l0-448.064c0-20.352 7.36-38.08 22.016-52.672 14.656-14.72 32.256-22.208 52.672-22.208l74.112 0 0-223.744 227.584 223.744 444.992 0c20.416 0 38.016 7.424 52.608 22.208C952.64 233.408 960 251.136 960 271.488L960 719.552C960 739.968 952.64 757.952 937.92 772.608M357.12 403.456c-40.832 0-68.928 31.552-68.928 73.6 0 43.2 29.248 73.536 70.08 73.536s68.928-30.4 68.928-73.536C427.2 435.008 400.32 403.456 357.12 403.456M581.376 403.456c-40.896 0-68.928 31.552-68.928 73.6 0 43.2 29.248 73.536 70.144 73.536 40.896 0 68.864-30.4 68.864-73.536C651.456 435.008 624.576 403.456 581.376 403.456M805.568 403.456c-40.896 0-68.864 31.552-68.864 73.6 0 43.2 29.184 73.536 70.144 73.536 40.832 0 68.864-30.4 68.864-73.536C875.712 435.008 848.896 403.456 805.568 403.456"  horiz-adv-x="1024" />

    
    <glyph glyph-name="b2G-qq" unicode="&#59267;" d="M855.859 268.429c-5.31 73.131-54.382 134.398-82.747 166.087 3.937 9.219 13.519 62.582-23.48 98.992 0.059 0.873 0.059 1.74 0.059 2.587 0 143.633-102.234 247.017-230.513 247.487-128.299-0.471-230.529-103.855-230.529-247.487 0-0.847-0.012-1.713 0.049-2.587-36.999-36.41-27.4-89.773-23.48-98.992-28.347-31.689-77.425-92.956-82.745-166.087-0.959-19.225 2.013-47.228 11.404-59.674 11.443-15.177 42.852 3.047 65.314 51.536 6.249-22.463 20.674-56.756 53.311-100.283-54.621-12.465-70.201-66.339-51.826-95.787 12.96-20.751 42.631-37.818 93.766-37.818 90.978 0 131.156 24.451 149.087 41.477 3.655 3.714 8.926 5.505 15.649 5.519 6.7-0.014 11.984-1.805 15.626-5.519 17.933-17.026 58.119-41.477 149.077-41.477 51.153 0 80.804 17.067 93.764 37.818 18.381 29.448 2.804 83.323-51.803 95.787 32.639 43.528 47.066 77.82 53.311 100.283 22.468-48.488 53.871-66.712 65.324-51.536 9.381 12.446 12.358 40.449 11.382 59.674z"  horiz-adv-x="1024" />

    
    <glyph glyph-name="22" unicode="&#59118;" d="M512 719.25 65 719.25l0-670.5 4.118 0 52.688 0L512 48.75l390.194 0 52.688 0L959 48.75l0 670.5L512 719.25zM883.395 689.45 512 342.808 140.606 689.45 883.395 689.45zM883.395 78.551 140.606 78.551l283.595 264.693-21.841 20.371L96.925 78.551 94.8 78.551 94.8 689.45l2.125 0L512 302.051 927.076 689.45l2.124 0 0-610.899-2.124 0L621.641 363.615 599.8 343.244 883.395 78.551z"  horiz-adv-x="1024" />

    
    <glyph glyph-name="lvyou" unicode="&#59008;" d="M572.184774 174.393806l-148.645161 29.778581c2.147097 16.829935 3.732645 33.114839 4.608 48.656516l101.888 69.813677C547.608774 272.697806 561.432774 221.943742 572.184774 174.393806zM450.147097 491.123613l-50.258581-34.419613c4.608-11.792516 8.951742-24.245677 12.684387-37.739355l85.768258-17.19329c-13.724903 30.042839-29.051871 58.88-46.29471 85.437935C451.765677 487.737806 451.038968 489.207742 450.147097 491.123613zM525.212903 336.16929c-6.160516 16.862968-12.833032 33.57729-19.951484 50.043871l-89.071484 17.853935c9.133419-38.020129 14.269935-82.365935 12.733935-133.863226L525.212903 336.16929zM268.816516 572.63071c-1.684645-4.641032-2.725161-9.579355-2.725161-14.848 0-16.68129 9.315097-31.000774 22.924387-38.284387-1.436903-4.954839-2.444387-10.091355-2.444387-15.475613 0-30.521806 24.229161-55.296 54.172903-55.296 21.702194 0 40.266323 13.09729 48.904258 31.859613 1.668129-3.517935 3.352774-7.002839 4.954839-10.718968l49.829161 34.171871c-1.073548 2.493935-1.965419 4.525419-2.328774 5.219097-3.187613 6.672516-5.84671 13.345032-8.109419 20.050581 6.193548-3.600516 13.295484-5.863226 20.958968-5.863226 23.469419 0 42.462968 19.422968 42.462968 43.338323 0 23.898839-18.993548 43.338323-42.462968 43.338323-11.809032 0-22.494968-4.954839-30.191484-12.899097 4.591484 63.306323 45.78271 120.154839 109.914839 152.080516 59.292903 29.464774 126.232774 24.080516 178.803613-8.192-52.207484 74.355613-150.808774 101.888-234.182194 60.366452-48.821677-24.262194-82.481548-67.352774-97.048774-116.52129-0.21471 36.797935 9.661935 68.888774 37.409032 98.766452 4.360258 4.641032 8.951742 9.182968 13.857032 13.444129 50.010839 43.883355 116.157935 55.973161 175.070968 38.333935-69.070452 58.467097-171.272258 59.524129-241.581419-2.196645-40.448-35.410581-62.282323-84.661677-64.858839-134.969806-33.213935 50.737548-94.819097 77.774452-156.37471 62.744774C75.016258 743.869935 28.672 677.095226 33.362581 605.48129c16.119742 46.29471 54.024258 83.621161 104.348903 95.859613 61.027097 14.864516 122.054194-11.511742 155.43329-61.390452-47.40129 18.977032-102.10271 18.465032-151.353806-6.35871-83.15871-41.917935-122.169806-138.256516-96.437677-225.940645 7.151484 62.183226 43.916387 119.527226 103.060645 149.305806C187.276387 576.429419 229.442065 580.855742 268.816516 572.63071zM642.692129 51.249548l68.921806 13.824c-1.024 7.828645-1.75071 15.36-2.163613 22.561032l-47.236129 32.388129C654.055226 96.834065 647.663484 73.282065 642.692129 51.249548zM722.64671 182.255484l-23.353806 15.987613c-0.429419-0.891871-0.72671-1.552516-0.908387-1.783742-7.97729-12.370581-15.128774-25.715613-21.487484-39.655226l39.770839 7.993806C718.451613 171.008 720.417032 176.755613 722.64671 182.255484zM673.692903 149.504c-3.303226-7.613935-6.35871-15.409548-9.249032-23.25471l44.643097-30.554839c-0.72671 23.898839 1.635097 44.411871 5.912774 62.133677L673.692903 149.504zM625.796129 357.921032c27.301161 8.192 58.021161 2.576516 81.226323-17.738323 2.279226-2.031484 4.426323-4.096 6.424774-6.309161 12.833032-13.824 17.441032-28.688516 17.341935-45.749677-6.771613 22.775742-22.395871 42.776774-45.039484 54.024258-38.664258 19.290839-84.397419 6.490839-108.692645-27.994839 24.410839 14.963613 55.477677 17.457548 82.977032 3.782194 29.778581-14.798452 48.904258-41.191226 51.001806-70.540387-3.567484 3.699613-8.538839 5.995355-14.03871 5.995355-10.884129 0-19.703742-9.00129-19.703742-20.133161 0-11.082323 8.819613-20.100129 19.703742-20.100129 3.534452 0 6.821161 1.040516 9.678452 2.692129-1.040516-3.105032-2.246194-6.226581-3.749161-9.298581-0.132129-0.346839-0.512-1.288258-1.106581-2.427871l23.155613-15.822452c0.743226 1.651613 1.536 3.303226 2.295742 4.938323 3.963871-8.670968 12.634839-14.765419 22.726194-14.765419 13.873548 0 25.104516 11.429161 25.104516 25.616516 0 2.460903-0.445935 4.921806-1.106581 7.201032 6.325677 3.385806 10.652903 9.992258 10.652903 17.754839 0 2.444387-0.478968 4.707097-1.271742 6.887226 18.250323 3.79871 37.838452 1.75071 55.890581-7.283613 27.383742-13.840516 44.477935-40.464516 47.797677-69.235613 11.974194 40.66271-6.177032 85.338839-44.742194 104.794839-22.874839 11.544774-48.260129 11.759484-70.243097 2.956387 15.492129 23.155613 43.850323 35.377548 72.092903 28.556387 23.33729-5.731097 40.943484-23.089548 48.408774-44.494452 2.147097 33.213935-19.290839 64.181677-52.174452 72.175484-28.556387 6.969806-57.096258-5.532903-72.538839-29.101419-1.189161 23.403355-11.313548 46.228645-30.026323 62.629161C705.255226 385.569032 657.853935 385.123097 625.796129 357.921032zM733.745548-24.642065c-10.735484 30.753032-17.688774 58.566194-21.338839 83.257806l-71.250581-14.302968c-1.618581-7.399226-3.072-14.501161-4.39329-21.421419l67.930839-46.525935c-3.897806 0.115613-7.89471 0.198194-11.825548 0.330323l-57.377032 39.341419c-2.56-14.435097-4.475871-27.284645-5.896258-38.168774-8.158968 0.132129-16.450065 0.132129-24.658581 0.165161-3.038968 27.697548-8.390194 70.127484-17.391484 120.386065l-180.868129-123.970065c-8.968258-0.396387-17.688774-0.858839-26.343226-1.288258l204.469677 140.056774c-2.791226 14.881032-5.863226 30.356645-9.298581 46.261677l-153.732129 30.802581c-9.331613-63.587097-28.407742-136.125935-60.11871-218.161548-132.558452-7.746065-222.026323-22.214194-222.026323-38.796387C139.610839-91.416774 337.62271-111.483871 581.830194-111.483871 826.054194-111.483871 1024-91.416774 1024-66.675613 1024.033032-47.31871 903.002839-30.885161 733.745548-24.642065z"  horiz-adv-x="1024" />

    
    <glyph glyph-name="chuangjianxinyingyongtianjiamiaoshu" unicode="&#59171;" d="M512 896C229.262222 896 0 666.794667 0 384s229.262222-512 512-512c282.794667 0 512 229.205333 512 512S794.794667 896 512 896zM341.333333 122.026667 341.333333 99.555556 227.555556 99.555556l0 113.777778 19.399111 0 342.414222 342.414222 92.899556-92.842667L341.333333 122.026667zM782.279111 562.972444l-64.739556-64.739556-92.842667 92.899556 64.739556 64.682667c17.066667 17.123556 44.771556 17.123556 61.895111 0l30.947556-30.947556C799.345778 607.800889 799.345778 579.982222 782.279111 562.972444z"  horiz-adv-x="1024" />

    
    <glyph glyph-name="wentiguanli" unicode="&#59092;" d="M633.139 828.877c-249.114 66.765-505.19-81.075-571.955-330.214-66.739-249.114 81.075-505.216 330.214-571.955 128-34.304 257.613-11.648 362.675 51.994l-0.282 0.461c13.338 7.706 22.4 21.888 22.4 38.4 0 24.55-19.891 44.467-44.467 44.467-7.68 0-14.771-2.125-21.069-5.53l-0.282 0.538c-85.376-52.71-191.232-71.782-295.757-43.75-201.318 53.939-320.794 260.864-266.854 462.182 53.939 201.318 260.864 320.794 462.182 266.854 201.318-53.939 320.794-260.864 266.854-462.208-9.728-36.275-24.55-69.786-43.29-100.224l0.819-0.461c-3.43-6.298-5.53-13.389-5.53-21.094 0-24.55 19.891-44.442 44.442-44.442 16.461 0 30.643 9.011 38.349 22.246l0.026 0c22.272 36.813 40.064 77.133 51.738 120.781 66.79 249.139-81.05 505.216-330.214 571.955zM587.034 353.28c22.298 14.618 84.506 44.288 84.506 122.291s-65.382 131.635-120.269 142.976c-54.938 11.366-114.458 3.917-156.672-42.394-37.862-41.395-45.824-74.189-45.824-146.509l84.762 0 0 16.819c0 38.554 4.454 79.206 59.494 90.342 30.029 6.067 58.189-3.354 74.931-19.712 19.149-18.662 19.302-60.8-11.162-81.766l-47.795-32.538c-27.853-17.869-37.427-37.76-37.427-66.995l0-97.971 84.813 0 0 66.074c-0.026 17.894 8.32 34.765 30.643 49.382zM513.997 204.57c-24.115 0-43.699-19.558-43.699-43.674 0-24.09 19.558-43.648 43.699-43.648 24.09 0 43.648 19.558 43.648 43.648 0 24.141-19.533 43.674-43.648 43.674z"  horiz-adv-x="1024" />

    
    <glyph glyph-name="gongwenbao" unicode="&#59031;" d="M429.833629 394.586103l164.335812 0 0-63.514569-164.335812 0 0 63.514569ZM635.258255 288.72917 388.748908 288.72917 388.748908 331.664028c-157.035546 0-287.590997 0-287.590997 0l0-279.06174c0-33.290197 26.869974-60.275805 60.419068-60.275805l700.853206 0c33.364899 0 60.419068 27.197432 60.419068 60.275805L922.849252 331.664028c0 0-130.558521 0-287.590997 0L635.258255 288.72917zM903.930367 669.815561 676.339906 669.815561c0 58.462506-73.574692 105.85898-164.339906 105.85898-90.76112 0-164.332742-47.396473-164.332742-105.85898L120.076796 669.815561c-33.136701 0-60.007699-26.825972-60.007699-59.981093l0-176.438455c0-33.126468 27.054169-59.981093 60.007699-59.981093l268.672112 0 0 63.514569 246.509347 0 0-63.514569 268.672112 0c33.136701 0 59.999512 26.825972 59.999512 59.981093l0 176.438455C963.930903 642.96196 936.883897 669.815561 903.930367 669.815561zM388.748908 669.815561c0 35.07689 55.181787 63.514569 123.251092 63.514569 68.076468 0 123.258255-28.436656 123.258255-63.514569L388.748908 669.815561z"  horiz-adv-x="1024" />

    
    <glyph glyph-name="icon6" unicode="&#59017;" d="M81.885474 53.648107l0 33.983999c0 35.467793 17.488303 52.956096 52.966329 52.956096l770.477936 0c18.491143 0 35.979446-16.987906 35.979446-52.956096l0-33.983999c0-18.481933-17.488303-52.956096-35.979446-52.956096l-770.477936 0c-17.488303 0-30.975479 7.992021-39.46892 19.48375-4.502547 5.495154-7.500834 11.490705-9.997702 17.488303s-3.499707 22.482037-3.499707 49.968042c0 35.467793 17.488303 52.956096 52.966329 52.956096l770.477936 0c18.491143 0 35.979446-16.987906 35.979446-52.956096l0-33.983999c0-18.481933-17.488303-52.956096-35.979446-52.956096l-770.477936 0c-17.488303 0-30.975479 7.992021-39.46892 19.48375-4.502547 5.495154-7.500834 11.490705-9.997702 17.488303s-3.499707 22.482037-3.499707 49.968042c0 35.467793 17.488303 52.956096 52.966329 52.956096l770.477936 0c18.491143 0 35.979446-16.987906 35.979446-52.956096l0-33.983999c0-18.481933-17.488303-52.956096-35.979446-52.956096l-770.477936 0c-17.488303 0-30.975479 7.992021-39.46892 19.48375-4.502547 5.495154-7.500834 11.490705-9.997702 17.488303s-3.499707 22.482037-3.499707 49.968042c0 35.467793 17.488303 52.956096 52.966329 52.956096l770.477936 0c18.491143 0 35.979446-16.987906 35.979446-52.956096l0-33.983999c0-18.481933-17.488303-52.956096-35.979446-52.956096l-770.477936 0c-17.488303 0-30.975479 7.992021-39.46892 19.48375-4.502547 5.495154-7.500834 11.490705-9.997702 17.488303s-3.499707 22.482037-3.499707 49.968042c0 35.467793 17.488303 52.956096 52.966329 52.956096l770.477936 0c18.491143 0 35.979446-16.987906 35.979446-52.956096l0-33.983999c0-18.481933-17.488303-52.956096-35.979446-52.956096l-770.477936 0c-17.488303 0-30.975479 7.992021-39.46892 19.48375-4.502547 5.495154-7.500834 11.490705-9.997702 17.488303s-3.499707 22.482037-3.499707 49.968042c0 35.467793 17.488303 52.956096 52.966329 52.956096l770.477936 0c18.491143 0 35.979446-16.987906 35.979446-52.956096l0-33.983999c0-18.481933-17.488303-52.956096-35.979446-52.956096l-770.477936 0c-17.488303 0-30.975479 7.992021-39.46892 19.48375-4.502547 5.495154-7.500834 11.490705-9.997702 17.488303s-3.499707 22.482037-3.499707 49.968042c0 35.467793 17.488303 52.956096 52.966329 52.956096l770.477936 0c18.491143 0 35.979446-16.987906 35.979446-52.956096l0-33.983999c0-18.481933-17.488303-52.956096-35.979446-52.956096l-770.477936 0c-17.488303 0-30.975479 7.992021-39.46892 19.48375-4.502547 5.495154-7.500834 11.490705-9.997702 17.488303s-3.499707 22.482037-3.499707 49.968042c0 35.467793 17.488303 52.956096 52.966329 52.956096l770.477936 0c18.491143 0 35.979446-16.987906 35.979446-52.956096l0-33.983999c0-18.481933-17.488303-52.956096-35.979446-52.956096l-770.477936 0c-17.488303 0-30.975479 7.992021-39.46892 19.48375-4.502547 5.495154-7.500834 11.490705-9.997702 17.488303s-3.499707 22.482037-3.499707 49.968042c0 35.467793 17.488303 52.956096 52.966329 52.956096l770.477936 0c18.491143 0 35.979446-16.987906 35.979446-52.956096l0-33.983999c0-18.481933-17.488303-52.956096-35.979446-52.956096l-770.477936 0c-17.488303 0-30.975479 7.992021-39.46892 19.48375-4.502547 5.495154-7.500834 11.490705-9.997702 17.488303s-3.499707 22.482037-3.499707 49.968042c0 35.467793 17.488303 52.956096 52.966329 52.956096l770.477936 0c18.491143 0 35.979446-16.987906 35.979446-52.956096l0-33.983999c0-18.481933-17.488303-52.956096-35.979446-52.956096l-770.477936 0C100.375593 0.692011 81.885474 35.166173 81.885474 53.648107L81.885474 53.648107zM222.793714 245.518019l0 87.941911c0 35.478026 16.485463 70.956052 68.950372 70.956052l17.989723 0c53.467749 0 70.956052-35.478026 70.956052-70.956052l0-87.941911c0-17.488303-5.003967-32.970926-15.492856-47.460941-10.499122-14.490016-28.980032-21.48943-55.463196-21.48943l-17.989723 0c-25.981744 0-43.971467 6.999414-53.958936 21.48943-9.997702 14.490016-14.991436 59.45409-14.991436 135.402853 0 35.478026 16.485463 70.956052 68.950372 70.956052l17.989723 0c53.467749 0 70.956052-35.478026 70.956052-70.956052l0-87.941911c0-17.488303-5.003967-32.970926-15.492856-47.460941-10.499122-14.490016-28.980032-21.48943-55.463196-21.48943l-17.989723 0c-25.981744 0-43.971467 6.999414-53.958936 21.48943-9.997702 14.490016-14.991436 59.45409-14.991436 135.402853 0 35.478026 16.485463 70.956052 68.950372 70.956052l17.989723 0c53.467749 0 70.956052-35.478026 70.956052-70.956052l0-87.941911c0-17.488303-5.003967-32.970926-15.492856-47.460941-10.499122-14.490016-28.980032-21.48943-55.463196-21.48943l-17.989723 0c-25.981744 0-43.971467 6.999414-53.958936 21.48943-9.997702 14.490016-14.991436 59.45409-14.991436 135.402853 0 35.478026 16.485463 70.956052 68.950372 70.956052l17.989723 0c53.467749 0 70.956052-35.478026 70.956052-70.956052l0-87.941911c0-17.488303-5.003967-32.970926-15.492856-47.460941-10.499122-14.490016-28.980032-21.48943-55.463196-21.48943l-17.989723 0c-25.981744 0-43.971467 6.999414-53.958936 21.48943-9.997702 14.490016-14.991436 59.45409-14.991436 135.402853 0 35.478026 16.485463 70.956052 68.950372 70.956052l17.989723 0c53.467749 0 70.956052-35.478026 70.956052-70.956052l0-87.941911c0-17.488303-5.003967-32.970926-15.492856-47.460941-10.499122-14.490016-28.980032-21.48943-55.463196-21.48943l-17.989723 0c-25.981744 0-43.971467 6.999414-53.958936 21.48943-9.997702 14.490016-14.991436 59.45409-14.991436 135.402853 0 35.478026 16.485463 70.956052 68.950372 70.956052l17.989723 0c53.467749 0 70.956052-35.478026 70.956052-70.956052l0-87.941911c0-17.488303-5.003967-32.970926-15.492856-47.460941-10.499122-14.490016-28.980032-21.48943-55.463196-21.48943l-17.989723 0c-25.981744 0-43.971467 6.999414-53.958936 21.48943-9.997702 14.490016-14.991436 59.45409-14.991436 135.402853 0 35.478026 16.485463 70.956052 68.950372 70.956052l17.989723 0c53.467749 0 70.956052-35.478026 70.956052-70.956052l0-87.941911c0-17.488303-5.003967-32.970926-15.492856-47.460941-10.499122-14.490016-28.980032-21.48943-55.463196-21.48943l-17.989723 0c-25.981744 0-43.971467 6.999414-53.958936 21.48943-9.997702 14.490016-14.991436 59.45409-14.991436 135.402853 0 35.478026 16.485463 70.956052 68.950372 70.956052l17.989723 0c53.467749 0 70.956052-35.478026 70.956052-70.956052l0-87.941911c0-17.488303-5.003967-32.970926-15.492856-47.460941-10.499122-14.490016-28.980032-21.48943-55.463196-21.48943l-17.989723 0c-25.981744 0-43.971467 6.999414-53.958936 21.48943-9.997702 14.490016-14.991436 59.45409-14.991436 135.402853 0 35.478026 16.485463 70.956052 68.950372 70.956052l17.989723 0c53.467749 0 70.956052-35.478026 70.956052-70.956052l0-87.941911c0-17.488303-5.003967-32.970926-15.492856-47.460941-10.499122-14.490016-28.980032-21.48943-55.463196-21.48943l-17.989723 0c-25.981744 0-43.971467 6.999414-53.958936 21.48943-9.997702 14.490016-14.991436 59.45409-14.991436 135.402853 0 35.478026 16.485463 70.956052 68.950372 70.956052l17.989723 0c53.467749 0 70.956052-35.478026 70.956052-70.956052l0-87.941911c0-17.488303-5.003967-32.970926-15.492856-47.460941-10.499122-14.490016-28.980032-21.48943-55.463196-21.48943l-17.989723 0c-25.981744 0-43.971467 6.999414-53.958936 21.48943C227.787448 212.547093 222.793714 228.029716 222.793714 245.518019L222.793714 245.518019zM449.640232 245.518019l0 455.698716c0 35.969213 35.478026 69.953212 69.953212 69.953212l35.96819 0c34.485419 0 68.961628-33.983999 68.961628-69.953212l0-455.698716c0-34.475186-34.475186-68.950372-68.961628-68.950372l-35.96819 0c-17.489326 0-34.475186 8.994861-47.972595 21.48943-6.497994 6.487761-11.993149 13.487176-15.984043 21.979594-4.001127 8.493441-5.996574 168.886455-5.996574 481.179041 0 35.969213 35.478026 69.953212 69.953212 69.953212l35.96819 0c34.485419 0 68.961628-33.983999 68.961628-69.953212l0-455.698716c0-34.475186-34.475186-68.950372-68.961628-68.950372l-35.96819 0c-17.489326 0-34.475186 8.994861-47.972595 21.48943-6.497994 6.487761-11.993149 13.487176-15.984043 21.979594-4.001127 8.493441-5.996574 168.886455-5.996574 481.179041 0 35.969213 35.478026 69.953212 69.953212 69.953212l35.96819 0c34.485419 0 68.961628-33.983999 68.961628-69.953212l0-455.698716c0-34.475186-34.475186-68.950372-68.961628-68.950372l-35.96819 0c-17.489326 0-34.475186 8.994861-47.972595 21.48943-6.497994 6.487761-11.993149 13.487176-15.984043 21.979594-4.001127 8.493441-5.996574 168.886455-5.996574 481.179041 0 35.969213 35.478026 69.953212 69.953212 69.953212l35.96819 0c34.485419 0 68.961628-33.983999 68.961628-69.953212l0-455.698716c0-34.475186-34.475186-68.950372-68.961628-68.950372l-35.96819 0c-17.489326 0-34.475186 8.994861-47.972595 21.48943-6.497994 6.487761-11.993149 13.487176-15.984043 21.979594-4.001127 8.493441-5.996574 168.886455-5.996574 481.179041 0 35.969213 35.478026 69.953212 69.953212 69.953212l35.96819 0c34.485419 0 68.961628-33.983999 68.961628-69.953212l0-455.698716c0-34.475186-34.475186-68.950372-68.961628-68.950372l-35.96819 0c-17.489326 0-34.475186 8.994861-47.972595 21.48943-6.497994 6.487761-11.993149 13.487176-15.984043 21.979594-4.001127 8.493441-5.996574 168.886455-5.996574 481.179041 0 35.969213 35.478026 69.953212 69.953212 69.953212l35.96819 0c34.485419 0 68.961628-33.983999 68.961628-69.953212l0-455.698716c0-34.475186-34.475186-68.950372-68.961628-68.950372l-35.96819 0c-17.489326 0-34.475186 8.994861-47.972595 21.48943-6.497994 6.487761-11.993149 13.487176-15.984043 21.979594-4.001127 8.493441-5.996574 168.886455-5.996574 481.179041 0 35.969213 35.478026 69.953212 69.953212 69.953212l35.96819 0c34.485419 0 68.961628-33.983999 68.961628-69.953212l0-455.698716c0-34.475186-34.475186-68.950372-68.961628-68.950372l-35.96819 0c-17.489326 0-34.475186 8.994861-47.972595 21.48943-6.497994 6.487761-11.993149 13.487176-15.984043 21.979594-4.001127 8.493441-5.996574 168.886455-5.996574 481.179041 0 35.969213 35.478026 69.953212 69.953212 69.953212l35.96819 0c34.485419 0 68.961628-33.983999 68.961628-69.953212l0-455.698716c0-34.475186-34.475186-68.950372-68.961628-68.950372l-35.96819 0c-17.489326 0-34.475186 8.994861-47.972595 21.48943-6.497994 6.487761-11.993149 13.487176-15.984043 21.979594-4.001127 8.493441-5.996574 168.886455-5.996574 481.179041 0 35.969213 35.478026 69.953212 69.953212 69.953212l35.96819 0c34.485419 0 68.961628-33.983999 68.961628-69.953212l0-455.698716c0-34.475186-34.475186-68.950372-68.961628-68.950372l-35.96819 0c-17.489326 0-34.475186 8.994861-47.972595 21.48943-6.497994 6.487761-11.993149 13.487176-15.984043 21.979594-4.001127 8.493441-5.996574 168.886455-5.996574 481.179041 0 35.969213 35.478026 69.953212 69.953212 69.953212l35.96819 0c34.485419 0 68.961628-33.983999 68.961628-69.953212l0-455.698716c0-34.475186-34.475186-68.950372-68.961628-68.950372l-35.96819 0C485.118258 176.567647 449.640232 211.04181 449.640232 245.518019L449.640232 245.518019zM677.48038 245.518019l0 297.80257c0 35.478026 35.478026 70.945819 69.952188 70.945819l35.979446 0c34.475186 0 68.950372-35.467793 68.950372-70.945819l0-297.80257c0-34.475186-34.474163-68.950372-68.950372-68.950372l-35.979446 0c-17.488303 0-34.474163 8.994861-47.962362 21.48943-6.497994 6.487761-11.993149 13.487176-15.994276 21.979594-3.989871 8.493441-5.995551 115.920126-5.995551 323.282894 0 35.478026 35.478026 70.945819 69.952188 70.945819l35.979446 0c34.475186 0 68.950372-35.467793 68.950372-70.945819l0-297.80257c0-34.475186-34.474163-68.950372-68.950372-68.950372l-35.979446 0c-17.488303 0-34.474163 8.994861-47.962362 21.48943-6.497994 6.487761-11.993149 13.487176-15.994276 21.979594-3.989871 8.493441-5.995551 115.920126-5.995551 323.282894 0 35.478026 35.478026 70.945819 69.952188 70.945819l35.979446 0c34.475186 0 68.950372-35.467793 68.950372-70.945819l0-297.80257c0-34.475186-34.474163-68.950372-68.950372-68.950372l-35.979446 0c-17.488303 0-34.474163 8.994861-47.962362 21.48943-6.497994 6.487761-11.993149 13.487176-15.994276 21.979594-3.989871 8.493441-5.995551 115.920126-5.995551 323.282894 0 35.478026 35.478026 70.945819 69.952188 70.945819l35.979446 0c34.475186 0 68.950372-35.467793 68.950372-70.945819l0-297.80257c0-34.475186-34.474163-68.950372-68.950372-68.950372l-35.979446 0c-17.488303 0-34.474163 8.994861-47.962362 21.48943-6.497994 6.487761-11.993149 13.487176-15.994276 21.979594-3.989871 8.493441-5.995551 115.920126-5.995551 323.282894 0 35.478026 35.478026 70.945819 69.952188 70.945819l35.979446 0c34.475186 0 68.950372-35.467793 68.950372-70.945819l0-297.80257c0-34.475186-34.474163-68.950372-68.950372-68.950372l-35.979446 0c-17.488303 0-34.474163 8.994861-47.962362 21.48943-6.497994 6.487761-11.993149 13.487176-15.994276 21.979594-3.989871 8.493441-5.995551 115.920126-5.995551 323.282894 0 35.478026 35.478026 70.945819 69.952188 70.945819l35.979446 0c34.475186 0 68.950372-35.467793 68.950372-70.945819l0-297.80257c0-34.475186-34.474163-68.950372-68.950372-68.950372l-35.979446 0c-17.488303 0-34.474163 8.994861-47.962362 21.48943-6.497994 6.487761-11.993149 13.487176-15.994276 21.979594-3.989871 8.493441-5.995551 115.920126-5.995551 323.282894 0 35.478026 35.478026 70.945819 69.952188 70.945819l35.979446 0c34.475186 0 68.950372-35.467793 68.950372-70.945819l0-297.80257c0-34.475186-34.474163-68.950372-68.950372-68.950372l-35.979446 0c-17.488303 0-34.474163 8.994861-47.962362 21.48943-6.497994 6.487761-11.993149 13.487176-15.994276 21.979594-3.989871 8.493441-5.995551 115.920126-5.995551 323.282894 0 35.478026 35.478026 70.945819 69.952188 70.945819l35.979446 0c34.475186 0 68.950372-35.467793 68.950372-70.945819l0-297.80257c0-34.475186-34.474163-68.950372-68.950372-68.950372l-35.979446 0c-17.488303 0-34.474163 8.994861-47.962362 21.48943-6.497994 6.487761-11.993149 13.487176-15.994276 21.979594-3.989871 8.493441-5.995551 115.920126-5.995551 323.282894 0 35.478026 35.478026 70.945819 69.952188 70.945819l35.979446 0c34.475186 0 68.950372-35.467793 68.950372-70.945819l0-297.80257c0-34.475186-34.474163-68.950372-68.950372-68.950372l-35.979446 0c-17.488303 0-34.474163 8.994861-47.962362 21.48943-6.497994 6.487761-11.993149 13.487176-15.994276 21.979594-3.989871 8.493441-5.995551 115.920126-5.995551 323.282894 0 35.478026 35.478026 70.945819 69.952188 70.945819l35.979446 0c34.475186 0 68.950372-35.467793 68.950372-70.945819l0-297.80257c0-34.475186-34.474163-68.950372-68.950372-68.950372l-35.979446 0C712.958406 176.567647 677.48038 211.04181 677.48038 245.518019z"  horiz-adv-x="1024" />

    
    <glyph glyph-name="cooperation" unicode="&#59172;" d="M11.946 402.9l57.306-30.7c0 0 26.066-15.554 39.818 13.506l141.856 309.022c0 0 13.426 26.4-8.512 38.814L179.866 765.334c0 0-19.384 11.256-32.024-12.486C147.448 743.298 2.254 437.958 2.254 437.958S-6.982 412.926 11.946 402.9zM947.368 371.518l58.482 28.038c0 0 27.962 11.802 14.474 41.064L874.408 747.53c0 0-11.66 27.216-34.582 16.982l-62.542-31.584c0 0-20.498-8.936-10.414-33.904 7.006-6.276 148.074-313.796 148.074-313.796S928.108 362.24 947.368 371.518zM150.724 372.54l19.32 42.636 67.784-89.16c0 0 44.076 10.504 59.532-18.212 0 0 14.54-17.462 8.186-50.412 0 0 9.102-6.89 9.824-11.186 0 0 30.324 7.636 48.594-14.808 0 0 16.766-13.912 14.868-41.062 0 0 12.05-5.39 14.54-12.824 0 0 29.798 7.708 44.274-10.438 0 0 17.682-17.19 16.372-37.316l27.704-21.078c0 0 25.804-2.252 29.93-23.26l24.82-19.104c0 0 39.688-16.372 41.916 24.97l-93.196 73.944c0 0-10.936 29.812 23.25 25.174l138.91-101.916c0 0 22.724-10.098 36.478 12.348 0 0 13.36 19.374-5.632 40.384l-147.75 111.192c0 0-13.032 31.108 20.5 28.72l175.32-129.206c0 0 24.886-10.298 35.368 9.006 0 0 14.208 19.302 0 39.222l-193.53 147.076c0 0-11.656 35.27 24.558 26.128l199.554-148.03c0 0 30.192-9.894 43.616 15.754 0 0 17.096 27.562-5.828 50.28L547.732 547.856c0 0-52.458 26.126-83.764-28.514 0 0-5.5-89.024-100.462-105.258 0 0-64.772 5.184-49.708 49.458 0 0 18.994 26.196 17.356 81.382 0 0 2.162 39.568 28.49 73.334L258 618.258l22.334 48.228 153.51 0c0 0 63.07 37.248 110.616 33.768 0 0 62.022-3.48 78.656-13.372 0 0 82.124-27.354 118.932-20.944l137.4-296.604-21.806-51.842c0 0 40.212-43.046 10.542-95.232-8.25-17.532-29.468-34.45-64.116-36.088 0 0 5.304-35.198-18.994-55.05 0 0-17.878-25.514-61.166-18.484 0 0 2.486-31.108-26.198-51.778 0 0-34.122-30.558-86.842 6.682 0 0-8.384-34.99-50.494-42.154 0 0-30.716-4.978-48.594 13.03 0 0-32.158-63.102-77.938-27.56 0 0-29.01 25.036-8.644 60.44 0 0-39.032-64.26-85.4-15.96 0 0-25.738 20.122-1.964 62.278 0 0-36.806-43.656-77.346-4.092 0 0-27.636 23.538-5.566 67.332 0 0-37.658-46.456-81.536-2.182 0 0-18.404 17.666-7.794 56.958l42.44 60.442L150.724 372.54z"  horiz-adv-x="1025" />

    
    <glyph glyph-name="manager" unicode="&#59093;" d="M340.258031 340.76c57.266-78.648 145.014-84.76 170.544-84.76l2.396 0c25.53 0 113.276 6.112 170.542 84.758 22.548 30.966 45.498 87.012 55.474 112.858 33.934 40.524 46.802 79.014 38.252 114.54-4.308 17.896-13.962 33.558-27.256 45.02 5.278 43.008 4.998 91.7-10.594 134.504-22.128 60.748-62.122 103.65-118.864 127.51C576.094031 893.972 533.758031 896 517.628031 896l-2.398 0c-1.268 0-2.35-0.012-3.228-0.03C511.122031 895.988 510.038031 896 508.770031 896l-2.396 0c-16.128 0-58.464-2.028-103.126-20.81-56.744-23.862-96.734-66.762-118.864-127.512-15.592-42.806-15.87-91.494-10.594-134.502-13.292-11.462-22.948-27.124-27.256-45.022-8.55-35.526 4.318-74.014 38.254-114.538C294.764031 427.77 317.708031 371.724 340.258031 340.76zM321.068031 567.976c18.556 6.95 31.012-20.712 35.546-33.066-5.164 15.928-19.194 63.18-21.556 112.96 16.708 23.356 50.05 62.498 89.612 68.878 0 0 85.52-102.268 261.342-100.272-5.048-37.208-14.568-69.056-18.626-81.568 4.538 12.354 16.99 40.016 35.546 33.066 11.208-4.198 30.144-26.572-19.504-80.944 0 0-28.334-76.892-51.424-108.6C597.972031 331.696 545.118031 320 513.200031 320c-0.302 0.018-0.718 0.042-1.2 0.078-0.48-0.036-0.896-0.06-1.198-0.078-31.92 0-84.778 11.696-118.806 58.432-23.09 31.708-51.424 108.6-51.424 108.6C290.924031 541.404 309.862031 563.778 321.068031 567.976zM577.050031 191.58 547.362031 224 512.000031 224l-35.366 0-29.688-32.42c0 0 16.966-36.18 44.534-50.244l-44.534-112.562c0 0 32.558-46.422 65.054-58.384 32.496 11.962 65.052 58.384 65.052 58.384l-44.532 112.562C560.082031 155.4 577.050031 191.58 577.050031 191.58zM975.104031 105.986C921.158031 175.05 680.958031 224 680.958031 224 712.770031 41.356 512.000031-69.71 512.000031-69.71S311.230031 41.356 343.040031 224c0 0-240.202-48.95-294.146-118.014C-8.269969 32.796-1.541969-39.372 2.698031-69.52 6.940031-99.666 14.350031-117.952 63.122031-128l897.752 0c48.774 10.048 56.184 28.334 60.426 58.48C1025.542031-39.372 1032.270031 32.796 975.104031 105.986z"  horiz-adv-x="1025" />

    
    <glyph glyph-name="gengduo" unicode="&#59270;" d="M511.998 620.361c43.509 0 78.788 35.276 78.788 78.787s-35.278 78.787-78.788 78.787c-43.508 0-78.786-35.276-78.786-78.787s35.276-78.787 78.786-78.787zM511.998 462.787c-43.508 0-78.786-35.277-78.786-78.788s35.277-78.787 78.786-78.787c43.509 0 78.788 35.276 78.788 78.787s-35.278 78.788-78.788 78.788zM511.998 147.639c-43.508 0-78.786-35.239-78.786-78.787 0-43.508 35.277-78.787 78.786-78.787 43.509 0 78.788 35.277 78.788 78.787-0.001 43.548-35.278 78.788-78.788 78.788z"  horiz-adv-x="1024" />

    
    <glyph glyph-name="sun" unicode="&#58984;" d="M884.462478 342.403626l-68.211545 0c-18.839067 0-34.113959 15.274892-34.113959 34.113959s15.274892 34.113959 34.113959 34.113959l68.211545 0c18.84009 0 34.114982-15.274892 34.114982-34.113959S903.302569 342.403626 884.462478 342.403626zM750.454392 569.478342c-13.325493-13.317307-34.93158-13.317307-48.240701 0-13.325493 13.317307-13.325493 34.914184 0 48.239677l48.240701 48.239677c13.30912 13.317307 34.913161 13.317307 48.239677 0 13.310144-13.325493 13.310144-34.922371 0-48.239677L750.454392 569.478342zM509.254981 171.865555c-113.037473 0-204.653053 91.632977-204.653053 204.653053 0 113.037473 91.615581 204.66124 204.653053 204.66124s204.669426-91.623767 204.669426-204.66124C713.924407 263.498532 622.292454 171.865555 509.254981 171.865555zM509.254981 512.959094c-75.358315 0-136.440485-61.08217-136.440485-136.440485 0-75.340919 61.08217-136.440485 136.440485-136.440485s136.440485 61.099566 136.440485 136.440485C645.695466 451.876923 584.613296 512.959094 509.254981 512.959094zM509.254981 649.400602c-18.839067 0-34.114982 15.274892-34.114982 34.113959l0 68.220754c0 18.84009 15.275915 34.105772 34.114982 34.105772s34.114982-15.265682 34.114982-34.105772l0-68.220754C543.369963 664.675494 528.094048 649.400602 509.254981 649.400602zM268.05557 569.478342l-48.239677 48.239677c-13.325493 13.317307-13.325493 34.914184 0 48.239677 13.325493 13.317307 34.914184 13.317307 48.239677 0l48.240701-48.239677c13.325493-13.325493 13.325493-34.922371 0-48.239677C302.969755 556.161035 281.382087 556.161035 268.05557 569.478342zM236.37401 376.518608c0-18.84009-15.258519-34.113959-34.113959-34.113959l-68.212568 0c-18.84009 0-34.113959 15.274892-34.113959 34.113959s15.274892 34.113959 34.113959 34.113959l68.212568 0C221.115492 410.632567 236.37401 395.358699 236.37401 376.518608zM268.05557 183.558875c13.325493 13.325493 34.914184 13.325493 48.240701 0 13.325493-13.30912 13.325493-34.913161 0-48.239677l-48.240701-48.240701c-13.325493-13.30912-34.914184-13.30912-48.239677 0-13.325493 13.325493-13.325493 34.93158 0 48.240701L268.05557 183.558875zM509.254981 103.636614c18.839067 0 34.114982-15.274892 34.114982-34.113959l0-68.212568c0-18.839067-15.275915-34.113959-34.114982-34.113959s-34.114982 15.274892-34.114982 34.113959l0 68.212568C475.139999 88.362746 490.415914 103.636614 509.254981 103.636614zM750.454392 183.558875l48.239677-48.239677c13.310144-13.30912 13.310144-34.914184 0-48.240701-13.325493-13.30912-34.930557-13.30912-48.239677 0l-48.240701 48.240701c-13.325493 13.325493-13.325493 34.930557 0 48.239677C715.523835 196.884368 737.128899 196.884368 750.454392 183.558875z"  horiz-adv-x="1024" />

    
    <glyph glyph-name="xiangmutongji" unicode="&#58927;" d="M903.422296 312.555831c-4.723581 0-7.451716 0-182.394097-77.131705l23.491017 192.925964c1.232061 10.031471-5.91164 19.149129-15.932878 20.369933-9.628288 1.167592-19.394722 1.763157-29.012777 1.763157-119.80562 0-221.109864-89.797166-235.620345-208.902844-15.839757-130.070404 77.089749-248.784156 207.14992-264.62289 9.628288-1.177825 19.383466-1.782599 29.02301-1.782599l0 0c119.80562 0 221.077118 89.827865 235.57839 208.912054 4.830005 39.617299-0.447185 80.06143-15.297404 117.088742C917.59304 308.05533 910.863778 312.555831 903.422296 312.555831zM899.409912 188.504514c-12.282744-100.761891-97.949846-176.747493-199.283766-176.747493-8.163937 0-16.443507 0.508583-24.596188 1.50733-110.050442 13.407358-188.66901 113.839745-175.25142 223.879953 12.271488 100.773148 97.93859 176.767959 199.295022 176.767959 2.101871 0 4.213975-0.041956 6.327102-0.106424l-25.074072-205.897394c-0.795109-6.538927 1.974981-12.992919 7.261381-16.899902 5.2864-3.928472 12.271488-4.691859 18.280342-2.038426 59.277058 26.178219 149.316747 65.667605 186.131211 81.250512C900.354424 243.874589 902.74282 215.955726 899.409912 188.504514zM959.428867 388.329609c-27.717272 65.284889-88.542592 111.239524-158.775166 119.955022-6.007831 0.753153-11.486612-3.545756-12.228509-9.553587l-23.163559-186.641841c-0.477884-3.885494 1.146103-7.728008 4.288676-10.106172 1.920746-1.454118 4.25593-2.207271 6.591115-2.207271 1.455141 0 2.920516 0.285502 4.278443 0.870834l173.202761 73.246211c2.685155 1.125637 4.787026 3.290953 5.880941 5.997598C960.606693 382.598071 960.564737 385.654686 959.428867 388.329609zM98.61653 843.661981c-17.679661 0-32.023344-14.362102-32.023344-32.041764l0-838.852186c0-17.679661 14.344706-32.005948 32.023344-32.005948s32.023344 14.326287 32.023344 32.005948L130.639874 811.620217C130.639874 829.299879 116.295168 843.661981 98.61653 843.661981zM420.076916 233.587292 200.519408 233.587292c-10.624988 0-19.228947-8.601912-19.228947-19.208481l0-126.565581c0-10.607592 8.602935-19.209504 19.228947-19.209504l262.117836 0c-27.27725 42.794665-43.088354 93.610004-43.088354 148.120502C419.54889 222.387205 419.740248 228.00618 420.076916 233.587292zM181.291484 457.809029l0-126.563534c0-10.608615 8.602935-19.211551 19.228947-19.211551l235.936547 0c28.299533 76.894298 89.861634 137.691989 167.234839 164.986635L200.519408 477.02058C189.89442 477.019557 181.291484 468.416622 181.291484 457.809029zM811.716664 720.450798 200.519408 720.450798c-10.624988 0-19.228947-8.638751-19.228947-19.247366L181.290461 574.658318c0-10.626012 8.602935-19.228947 19.228947-19.228947l611.197256 0c10.606569 0 19.209504 8.602935 19.209504 19.228947L830.926168 701.203432C830.927191 711.812047 822.324256 720.450798 811.716664 720.450798z"  horiz-adv-x="1024" />

    
    <glyph glyph-name="quanxian" unicode="&#58959;" d="M511.157819 743.099634c105.395422 0 190.847629-79.739089 190.847629-178.11156l95.420233 0c0 147.544381-128.162962 267.164782-286.267862 267.164782S224.895073 712.532455 224.895073 564.988074l95.418186 0C320.31326 663.360546 405.76649 743.099634 511.157819 743.099634zM829.234131 505.598452 193.086623 505.598452c-35.134195 0-63.615876-26.587542-63.615876-59.358923l0-445.302949c0-32.803103 28.481681-59.390645 63.615876-59.390645l636.147508 0 0.005117 0c35.124985-0.00307 63.611783 26.587542 63.611783 59.390645L892.851031 446.23953C892.850008 479.010911 864.364233 505.598452 829.234131 505.598452zM839.647295-0.444882c0-6.753821-5.525853-12.279674-12.279674-12.279674L197.96984-12.724557c-6.753821 0-12.279674 5.525853-12.279674 12.279674L185.690166 438.599526c0 6.753821 5.525853 12.279674 12.279674 12.279674L827.367621 450.8792c6.753821 0 12.279674-5.525853 12.279674-12.279674L839.647295-0.444882zM511.162936 357.150492l-0.005117 0.005117c-52.713572 0-95.420233-39.854707-95.420233-89.054245 0-32.866548 19.322068-61.288878 47.712675-76.694753l0-84.736916c0-25.591865 21.366633-46.37419 47.712675-46.37419 26.336832 0 47.712675 20.782326 47.712675 46.37419l0 84.736916c28.388561 15.405875 47.707558 43.828204 47.707558 76.694753C606.582145 317.295785 563.876508 357.150492 511.162936 357.150492z"  horiz-adv-x="1024" />

    
    <glyph glyph-name="xiangmuguanli" unicode="&#59026;" d="M392.923486 449.708538c0 31.502481-18.337647 47.294143-55.080479 47.294143L309.908794 497.00268l0-95.67606 27.376511 0C374.408807 401.326621 392.923486 417.431414 392.923486 449.708538zM81.432149 54.181249 583.213413-29.488359 583.213413 830.914656 81.432149 747.2737 81.432149 54.181249zM246.794337 545.956625l101.966323 0c73.717955 0 110.570281-56.292074 110.570281-93.728708 0-30.401404-11.149944-54.714136-33.395598-72.983221-22.25691-18.295692-50.069349-27.089985-83.464947-26.328645l-32.561603 0 0-103.299691-63.113433 0L246.794337 545.956625 246.794337 545.956625zM616.673479 716.167239 616.673479 607.898373 869.517091 607.898373 869.517091 424.170908 948.5194 424.170908 847.205946 322.830849 745.907842 424.170908 824.908104 424.170908 824.908104 563.286316 616.673479 563.286316 616.673479 276.818909 706.033693 366.203682 806.012755 266.280902 706.033693 166.384727 616.673479 255.742894 616.673479 80.129224 973.607798 80.129224 973.607798 716.167239Z"  horiz-adv-x="1024" />

    
    <glyph glyph-name="quxiao" unicode="&#59209;" d="M484.581022-44.901261l-2.116197 250.485915c294.777677 65.408709 400.986627-65.035202 400.986627-65.035202 106.214067-151.811568 95.747691-281.942347 95.747691-281.942347 81.979106 160.342872 23.611767 297.705356 23.611767 297.705356-108.518552 293.966195-520.347109 340.812129-520.347109 340.812129l-2.182712 254.537184C292.71418 603.895335 2.733763 326.686802 2.733763 326.686802S450.441481-44.901261 484.581022-44.901261z"  horiz-adv-x="1024" />

    
    <glyph glyph-name="juweihui2" unicode="&#59094;" d="M1004.888222 248.176568c35.749202 136.367831 22.197558 332.703451-134.638443 488.097614C720.336444 885.040391 532.359188 878.121817 532.359188 878.121817S737.918891 788.457682 821.236482 596.447577c54.491055-124.834146 68.619844-239.58054-13.834076-371.620809-1.157359-1.729387-2.598174-3.748371-3.751441-5.767354L457.687512 565.888584l124.83824 120.798227-68.329225 68.327178c-101.192703-62.272275-171.539888-21.335934-171.539888-21.335934L110.282221 513.128963l144.437623-142.422733 80.150458 64.292282 335.00896-337.025896c-141.270491-75.821873-346.251002-72.365144-549.792745 115.03292l-83.033112-68.039629c0 0 22.4892-39.210024 67.751057-86.202291-7.206122 2.303462-14.702863 3.460822-22.773679 3.460822-43.823088 0-79.576383-35.748179-79.576383-79.576383 0-44.10859 35.752272-79.856769 79.576383-79.856769 44.10859 0 79.857792 35.748179 79.857792 79.856769 0 10.382465-2.307555 20.475334-6.053879 29.695323 50.161447-40.072671 116.185162-78.418001 198.927655-96.865141 102.924137-23.064298 221.995023-34.311457 341.92958 6.630001 34.30941 11.532661 68.040652 27.387767 100.616582 47.568389l81.880869-82.45699 128.869043 126.855176-78.128405 78.420047C961.644325 136.314875 989.031069 187.634704 1004.888222 248.176568z"  horiz-adv-x="1024" />

    
    <glyph glyph-name="add" unicode="&#59019;" d="M514.009 886.095c-277.298 0-502.095-224.796-502.095-502.095s224.796-502.095 502.095-502.095 502.095 224.796 502.095 502.095-224.722 502.095-502.095 502.095zM514.009-72.475c-252.124 0-456.475 204.352-456.475 456.475s204.425 456.475 456.475 456.475 456.475-204.352 456.475-456.475-204.352-456.475-456.475-456.475zM536.891 635.05l-45.691 0 0-228.237-228.239 0 0-45.691 228.237 0 0-228.166 45.691 0 0 228.237 228.166 0 0 45.618-228.237 0 0 228.237 0.071 0z"  horiz-adv-x="1024" />

    
    <glyph glyph-name="fenxiang1" unicode="&#59040;" d="M929.344-49.248c0-14.784-12.992-26.88-28.864-26.88L106.624-76.128c-15.872 0-28.8 12.032-28.8 26.88L77.824 561.824c0 14.848 12.928 26.88 28.8 26.88l186.496 0L293.12 629.728 106.624 629.728c-38.528 0-69.824-30.4-69.824-67.904l0-611.072c0-37.504 31.296-67.904 69.824-67.904L900.48-117.152c38.656 0 69.888 30.4 69.888 67.904L970.368 161.12l-41.024 0L929.344-49.248zM449.664 87.52c-1.28 6.912-25.536 171.776 82.56 326.592 85.824 122.944 232 202.88 434.304 237.696l7.616-44.096c-189.824-32.64-326.016-106.176-404.8-218.624-97.536-139.136-74.752-299.456-74.56-300.992L449.664 87.52zM848.32 379.168 810.496 403.104 955.52 632.416 705.6 767.648 726.912 807.008 1019.008 648.992Z"  horiz-adv-x="1024" />

    
    <glyph glyph-name="07f3d66ee41cf70d5d84b0606cb8dc7fpng" unicode="&#59018;" d="M939.008 679.296l-57.856-67.84c0 0-49.856-55.232-55.872-103.744C517.12 600.576 158.848 509.696 158.848 509.696S148.352 557.12 134.912 583.552c-13.44 26.432-46.016 79.04-51.904 91.776C77.184 688.064 91.008 697.28 91.008 697.28S470.528 888.192 512 888.832s414.208-188.544 425.024-193.536C947.84 690.24 939.008 679.296 939.008 679.296zM591.872 739.136 432.192 739.136l0-85.824c0 0-3.008-39.744 79.808-73.856 76.8 33.344 79.808 75.84 79.808 75.84L591.808 739.136zM192.768 364.032c1.856 28.416 16.832 56.512 23.104 67.264-11.392 11.264-17.152 18.56-17.152 18.56 274.176 104.704 619.072 14.592 624.512 0 0.128-0.576-3.776-5.824-11.584-13.952 8.064-20.416 19.584-71.872 19.584-71.872s68.608-33.728 69.824-125.696c1.216-91.968-113.728-143.68-113.728-143.68S734.336-97.664 512-120.832c-224.96 27.968-275.328 219.456-275.328 219.456s-109.44 38.592-111.744 137.664C124.544 258.048 116.416 333.888 192.768 364.032zM282.56 156.544c0 0 55.744-189.44 229.44-209.536 157.12 15.488 221.504 201.536 221.504 201.536s127.296 30.4 89.792 127.68c-22.464-20.8-65.792-11.712-63.872 23.936 2.24 40.512-3.712 70.272-8 85.696-54.272-36.8-137.728-75.392-245.376-73.728C400.64 313.792 321.344 351.552 269.696 387.072 267.2 378.24 260.224 348.992 262.592 302.208 259.776 244.736 201.6 265.856 200.768 274.24 165.056 181.312 282.56 156.544 282.56 156.544z"  horiz-adv-x="1024" />

    
    <glyph glyph-name="refresh" unicode="&#58888;" d="M960.907 152.876c-0.03 0-0.063 0-0.093 0l-81.249-0.289c17.072 27.404 31.025 56.58 41.653 87.153 16.011 46.057 24.13 94.351 24.13 143.542 0 58.982-11.557 116.214-34.351 170.105-22.011 52.039-53.517 98.771-93.641 138.895-40.125 40.125-86.856 71.63-138.895 93.641-53.89 22.794-111.123 34.351-170.104 34.351-49.96 0-98.968-8.369-145.663-24.872-13.321-4.708-20.303-19.324-15.595-32.646 4.709-13.322 19.326-20.301 32.646-15.595 41.204 14.563 84.475 21.948 128.612 21.948 103.058 0 199.948-40.133 272.821-113.007 72.874-72.874 113.007-169.763 113.007-272.822 0-43.458-7.164-86.1-21.293-126.742-9.22-26.524-21.29-51.854-36.016-75.689l-25.499 73.663c-4.622 13.351-19.189 20.425-32.544 15.807-13.352-4.622-20.428-19.192-15.807-32.544l41.141-118.853c1.377-3.98 3.64-7.401 6.489-10.122 4.636-4.67 11.058-7.562 18.153-7.562 0.03 0 0.063 0 0.093 0l132.097 0.47c14.129 0.05 25.542 11.545 25.492 25.674-0.049 14.099-11.493 25.493-25.581 25.493zM675.533 35.45c-52.352-25.212-108.6-37.995-167.179-37.995-103.058 0-199.949 40.133-272.823 113.007-72.873 72.872-113.006 169.762-113.006 272.821 0 83.809 27.118 164.703 76.924 231.18l33.395-93.505c3.736-10.463 13.585-16.986 24.093-16.986 2.855 0 5.76 0.482 8.603 1.497 13.306 4.752 20.24 19.391 15.488 32.697l-45.712 127.995c-4.124 11.547-15.692 18.29-27.378 16.766-1.882 0.441-3.84 0.682-5.856 0.682-0.03 0-0.06 0-0.089 0l-137.135-0.469c-14.129-0.048-25.543-11.541-25.496-25.67 0.048-14.099 11.492-25.496 25.581-25.496 0.03 0 0.06 0 0.089 0l84.191 0.288c-50.497-72.759-77.863-159.398-77.863-248.98 0-58.982 11.557-116.215 34.351-170.105 22.011-52.04 53.516-98.771 93.641-138.895 40.124-40.125 86.855-71.629 138.895-93.641 53.891-22.794 111.123-34.351 170.105-34.351 66.328 0 130.044 14.488 189.377 43.062 12.73 6.131 18.08 21.42 11.95 34.149s-21.417 18.078-34.147 11.95z"  horiz-adv-x="1024" />

    
    <glyph glyph-name="print" unicode="&#58881;" d="M368.054587 400.543791l294.712185 0 0-59.35176-294.712185 0 0 59.35176ZM366.007975 304.349939l294.712185 0 0-59.35176-294.712185 0 0 59.35176ZM956.455651 614.92644c0 16.95516-13.744026 30.699186-30.699186 30.699186l-145.30948 0 0 94.601588 0 59.35176-58.328453 0-423.648766 0-58.328453 0 0 0 0-153.953348L93.142353 645.625626c-16.95516 0-30.699186-13.744026-30.699186-30.699186l0-102.842273 0-6.65149 0-270.664489 86.981027 0 41.59842 0 49.118698 0 0-69.584821 2.287089 0 197.556425-188.642404 0.723477 0.75827 0-1.151219 281.409205 0 13.302981 0 45.025473 0L780.445962 234.768187l83.553974 0 0 0.10847 92.275613 0L956.275549 502.136607c0.115634 1.082658 0.178055 2.181689 0.178055 3.296069L956.453604 614.92644zM859.241562 611.344868c19.780509 0 35.815717-16.035208 35.815717-35.815717s-16.035208-35.815717-35.815717-35.815717-35.815717 16.035208-35.815717 35.815717S839.461053 611.344868 859.241562 611.344868zM298.469765 740.227214l423.648766 0 0-94.601588-423.648766 0L298.469765 740.227214zM722.118532 411.800159l0-387.833049-246.616794 0L475.501738 199.090617l-177.031972 0L298.469765 411.800159l-58.328453 0 0-106.370633-49.118698 0L191.022615 474.733491l636.674511 0 0-169.303964-47.25014 0L780.446985 411.800159 722.118532 411.800159z"  horiz-adv-x="1024" />

    
    </font>
</defs>
</svg>
